<svg xmlns="http://www.w3.org/2000/svg" xmlns:xlink="http://www.w3.org/1999/xlink" contentStyleType="text/css" data-diagram-type="CLASS" height="819px" preserveAspectRatio="none" style="width:935px;height:819px;background:#FFFFFF;" version="1.1" viewBox="0 0 935 819" width="935px" zoomAndPan="magnify"><?plantuml 1.2026.3?><defs/><g><g class="title" data-source-line="18"><text fill="#000000" font-family="'Times New Roman'" font-size="14" font-weight="700" lengthAdjust="spacing" textLength="316.251" x="305.9295" y="23.0703">&#1057;&#1093;&#1077;&#1084;&#1072; &#1088;&#1077;&#1083;&#1103;&#1094;&#1080;&#1086;&#1085;&#1085;&#1086;&#1081; &#1073;&#1072;&#1079;&#1099; &#1076;&#1072;&#1085;&#1085;&#1099;&#1093; (PostgreSQL 16)</text></g><!--class workflows--><g class="entity" data-qualified-name="workflows" data-source-line="20" id="ent0002"><rect fill="#DCE9F5" height="132.5425" rx="2" ry="2" style="stroke:#2E5C8A;stroke-width:0.5;" width="157.1216" x="235.98" y="44.0986"/><rect fill="#2E5C8A" height="28" rx="2" ry="2" style="stroke:#2E5C8A;stroke-width:0.5;" width="157.1216" x="235.98" y="44.0986"/><rect fill="#2E5C8A" height="2" style="stroke:#2E5C8A;stroke-width:0.5;" width="157.1216" x="235.98" y="70.0986"/><rect fill="none" height="132.5425" rx="2" ry="2" style="stroke:#2E5C8A;stroke-width:0.5;" width="157.1216" x="235.98" y="44.0986"/><ellipse cx="287.2654" cy="58.0986" fill="#ADD1B2" rx="9" ry="9" style="stroke:#181818;stroke-width:1;"/><path d="M290.1629,62.0986 L285.1677,62.0986 L285.1677,54.0796 L290.1629,54.0796 L290.1629,55.4761 L286.7522,55.4761 L286.7522,57.2056 L289.8406,57.2056 L289.8406,58.6021 L286.7522,58.6021 L286.7522,60.7021 L290.1629,60.7021 Z " fill="#000000"/><text fill="#1A1A1A" font-family="'Times New Roman'" font-size="11" lengthAdjust="spacing" textLength="47.0508" x="304.7654" y="62.0437">workflows</text><line style="stroke:#2E5C8A;stroke-width:0.5;" x1="236.98" x2="392.1016" y1="72.0986" y2="72.0986"/><g data-visibility-modifier="IE_MANDATORY"><ellipse cx="246.98" cy="83.9231" fill="#000000" rx="3" ry="3" style="stroke:#000000;stroke-width:1;"/></g><text fill="#1A1A1A" font-family="'Times New Roman'" font-size="11" lengthAdjust="spacing" textLength="72.4185" x="253.98" y="86.3682">id : UUID &#171;PK&#187;</text><line style="stroke:#2E5C8A;stroke-width:1;" x1="236.98" x2="392.1016" y1="92.7476" y2="92.7476"/><text fill="#1A1A1A" font-family="'Times New Roman'" font-size="11" lengthAdjust="spacing" textLength="65.3501" x="241.98" y="107.0171">name : varchar</text><text fill="#1A1A1A" font-family="'Times New Roman'" font-size="11" lengthAdjust="spacing" textLength="73.9277" x="241.98" y="119.666">description : text</text><text fill="#1A1A1A" font-family="'Times New Roman'" font-size="11" lengthAdjust="spacing" textLength="145.1216" x="241.98" y="132.3149">current_version_id : bigint &#171;FK&#187;</text><text fill="#1A1A1A" font-family="'Times New Roman'" font-size="11" lengthAdjust="spacing" textLength="80.6523" x="241.98" y="144.9639">is_demo : boolean</text><text fill="#1A1A1A" font-family="'Times New Roman'" font-size="11" lengthAdjust="spacing" textLength="107.5078" x="241.98" y="157.6128">created_at : timestamptz</text><text fill="#1A1A1A" font-family="'Times New Roman'" font-size="11" lengthAdjust="spacing" textLength="110.5801" x="241.98" y="170.2617">updated_at : timestamptz</text></g><!--class revision--><g class="entity" data-qualified-name="revision" data-source-line="31" id="ent0003"><rect fill="#DCE9F5" height="127.8936" rx="2" ry="2" style="stroke:#2E5C8A;stroke-width:0.5;" width="201.1001" x="213.99" y="238.9686"/><rect fill="#2E5C8A" height="28" rx="2" ry="2" style="stroke:#2E5C8A;stroke-width:0.5;" width="201.1001" x="213.99" y="238.9686"/><rect fill="#2E5C8A" height="2" style="stroke:#2E5C8A;stroke-width:0.5;" width="201.1001" x="213.99" y="264.9686"/><rect fill="none" height="127.8936" rx="2" ry="2" style="stroke:#2E5C8A;stroke-width:0.5;" width="201.1001" x="213.99" y="238.9686"/><ellipse cx="268.9358" cy="252.9686" fill="#ADD1B2" rx="9" ry="9" style="stroke:#181818;stroke-width:1;"/><path d="M271.8333,256.9686 L266.8381,256.9686 L266.8381,248.9496 L271.8333,248.9496 L271.8333,250.3461 L268.4226,250.3461 L268.4226,252.0756 L271.511,252.0756 L271.511,253.4721 L268.4226,253.4721 L268.4226,255.5721 L271.8333,255.5721 Z " fill="#000000"/><text fill="#1A1A1A" font-family="'Times New Roman'" font-size="11" lengthAdjust="spacing" textLength="83.7085" x="286.4358" y="256.9137">workflow_revision</text><line style="stroke:#2E5C8A;stroke-width:0.5;" x1="214.99" x2="414.0901" y1="266.9686" y2="266.9686"/><g data-visibility-modifier="IE_MANDATORY"><ellipse cx="224.99" cy="278.7931" fill="#000000" rx="3" ry="3" style="stroke:#000000;stroke-width:1;"/></g><text fill="#1A1A1A" font-family="'Times New Roman'" font-size="11" lengthAdjust="spacing" textLength="82.8008" x="231.99" y="281.2382">id : bigserial &#171;PK&#187;</text><line style="stroke:#2E5C8A;stroke-width:1;" x1="214.99" x2="414.0901" y1="287.6176" y2="287.6176"/><text fill="#1A1A1A" font-family="'Times New Roman'" font-size="11" lengthAdjust="spacing" textLength="120.6885" x="219.99" y="301.8871">workflow_id : UUID &#171;FK&#187;</text><text fill="#1A1A1A" font-family="'Times New Roman'" font-size="11" lengthAdjust="spacing" textLength="94.7085" x="219.99" y="314.536">revision_number : int</text><text fill="#1A1A1A" font-family="'Times New Roman'" font-size="11" lengthAdjust="spacing" textLength="99.5962" x="219.99" y="327.1849">graph_skeleton : jsonb</text><text fill="#1A1A1A" font-family="'Times New Roman'" font-size="11" lengthAdjust="spacing" textLength="107.5078" x="219.99" y="339.8339">created_at : timestamptz</text><line style="stroke:#2E5C8A;stroke-width:1;" x1="214.99" x2="414.0901" y1="346.2133" y2="346.2133"/><text fill="#1A1A1A" font-family="'Times New Roman'" font-size="11" lengthAdjust="spacing" textLength="189.1001" x="219.99" y="360.4828">UNIQUE (workflow_id, revision_number)</text></g><!--class version--><g class="entity" data-qualified-name="version" data-source-line="42" id="ent0004"><rect fill="#DCE9F5" height="107.2446" rx="2" ry="2" style="stroke:#2E5C8A;stroke-width:0.5;" width="146.75" x="24.17" y="454.4886"/><rect fill="#2E5C8A" height="28" rx="2" ry="2" style="stroke:#2E5C8A;stroke-width:0.5;" width="146.75" x="24.17" y="454.4886"/><rect fill="#2E5C8A" height="2" style="stroke:#2E5C8A;stroke-width:0.5;" width="146.75" x="24.17" y="480.4886"/><rect fill="none" height="107.2446" rx="2" ry="2" style="stroke:#2E5C8A;stroke-width:0.5;" width="146.75" x="24.17" y="454.4886"/><ellipse cx="54.3139" cy="468.4886" fill="#ADD1B2" rx="9" ry="9" style="stroke:#181818;stroke-width:1;"/><path d="M57.2114,472.4886 L52.2163,472.4886 L52.2163,464.4696 L57.2114,464.4696 L57.2114,465.8661 L53.8008,465.8661 L53.8008,467.5956 L56.8891,467.5956 L56.8891,468.9921 L53.8008,468.9921 L53.8008,471.0921 L57.2114,471.0921 Z " fill="#000000"/><text fill="#1A1A1A" font-family="'Times New Roman'" font-size="11" lengthAdjust="spacing" textLength="80.6523" x="70.1237" y="472.4337">workflow_version</text><line style="stroke:#2E5C8A;stroke-width:0.5;" x1="25.17" x2="169.92" y1="482.4886" y2="482.4886"/><g data-visibility-modifier="IE_MANDATORY"><ellipse cx="35.17" cy="494.3131" fill="#000000" rx="3" ry="3" style="stroke:#000000;stroke-width:1;"/></g><text fill="#1A1A1A" font-family="'Times New Roman'" font-size="11" lengthAdjust="spacing" textLength="82.8008" x="42.17" y="496.7582">id : bigserial &#171;PK&#187;</text><line style="stroke:#2E5C8A;stroke-width:1;" x1="25.17" x2="169.92" y1="503.1376" y2="503.1376"/><text fill="#1A1A1A" font-family="'Times New Roman'" font-size="11" lengthAdjust="spacing" textLength="120.6885" x="30.17" y="517.4071">workflow_id : UUID &#171;FK&#187;</text><text fill="#1A1A1A" font-family="'Times New Roman'" font-size="11" lengthAdjust="spacing" textLength="134.75" x="30.17" y="530.056">root_revision_id : bigint &#171;FK&#187;</text><text fill="#1A1A1A" font-family="'Times New Roman'" font-size="11" lengthAdjust="spacing" textLength="92.8501" x="30.17" y="542.7049">version_tag : varchar</text><text fill="#1A1A1A" font-family="'Times New Roman'" font-size="11" lengthAdjust="spacing" textLength="107.5078" x="30.17" y="555.3539">created_at : timestamptz</text></g><!--class snapshot--><g class="entity" data-qualified-name="snapshot" data-source-line="51" id="ent0005"><rect fill="#DCE9F5" height="119.8936" rx="2" ry="2" style="stroke:#2E5C8A;stroke-width:0.5;" width="132.6885" x="210.2" y="448.1586"/><rect fill="#2E5C8A" height="28" rx="2" ry="2" style="stroke:#2E5C8A;stroke-width:0.5;" width="132.6885" x="210.2" y="448.1586"/><rect fill="#2E5C8A" height="2" style="stroke:#2E5C8A;stroke-width:0.5;" width="132.6885" x="210.2" y="474.1586"/><rect fill="none" height="119.8936" rx="2" ry="2" style="stroke:#2E5C8A;stroke-width:0.5;" width="132.6885" x="210.2" y="448.1586"/><ellipse cx="231.2633" cy="462.1586" fill="#ADD1B2" rx="9" ry="9" style="stroke:#181818;stroke-width:1;"/><path d="M234.1608,466.1586 L229.1656,466.1586 L229.1656,458.1396 L234.1608,458.1396 L234.1608,459.5361 L230.7501,459.5361 L230.7501,461.2656 L233.8385,461.2656 L233.8385,462.6621 L230.7501,462.6621 L230.7501,464.7621 L234.1608,464.7621 Z " fill="#000000"/><text fill="#1A1A1A" font-family="'Times New Roman'" font-size="11" lengthAdjust="spacing" textLength="86.77" x="245.0552" y="466.1037">workflow_snapshot</text><line style="stroke:#2E5C8A;stroke-width:0.5;" x1="211.2" x2="341.8885" y1="476.1586" y2="476.1586"/><g data-visibility-modifier="IE_MANDATORY"><ellipse cx="221.2" cy="487.9831" fill="#000000" rx="3" ry="3" style="stroke:#000000;stroke-width:1;"/></g><text fill="#1A1A1A" font-family="'Times New Roman'" font-size="11" lengthAdjust="spacing" textLength="82.8008" x="228.2" y="490.4282">id : bigserial &#171;PK&#187;</text><line style="stroke:#2E5C8A;stroke-width:1;" x1="211.2" x2="341.8885" y1="496.8076" y2="496.8076"/><text fill="#1A1A1A" font-family="'Times New Roman'" font-size="11" lengthAdjust="spacing" textLength="120.6885" x="216.2" y="511.0771">workflow_id : UUID &#171;FK&#187;</text><text fill="#1A1A1A" font-family="'Times New Roman'" font-size="11" lengthAdjust="spacing" textLength="111.5308" x="216.2" y="523.726">revision_id : bigint &#171;FK&#187;</text><text fill="#1A1A1A" font-family="'Times New Roman'" font-size="11" lengthAdjust="spacing" textLength="65.3501" x="216.2" y="536.3749">name : varchar</text><text fill="#1A1A1A" font-family="'Times New Roman'" font-size="11" lengthAdjust="spacing" textLength="73.9277" x="216.2" y="549.0239">description : text</text><text fill="#1A1A1A" font-family="'Times New Roman'" font-size="11" lengthAdjust="spacing" textLength="107.5078" x="216.2" y="561.6728">created_at : timestamptz</text></g><!--class wrun--><g class="entity" data-qualified-name="wrun" data-source-line="61" id="ent0006"><rect fill="#DCE9F5" height="157.8403" rx="2" ry="2" style="stroke:#2E5C8A;stroke-width:0.5;" width="171.8008" x="379.64" y="429.1886"/><rect fill="#2E5C8A" height="28" rx="2" ry="2" style="stroke:#2E5C8A;stroke-width:0.5;" width="171.8008" x="379.64" y="429.1886"/><rect fill="#2E5C8A" height="2" style="stroke:#2E5C8A;stroke-width:0.5;" width="171.8008" x="379.64" y="455.1886"/><rect fill="none" height="157.8403" rx="2" ry="2" style="stroke:#2E5C8A;stroke-width:0.5;" width="171.8008" x="379.64" y="429.1886"/><ellipse cx="430.3238" cy="443.1886" fill="#ADD1B2" rx="9" ry="9" style="stroke:#181818;stroke-width:1;"/><path d="M433.2213,447.1886 L428.2262,447.1886 L428.2262,439.1696 L433.2213,439.1696 L433.2213,440.5661 L429.8107,440.5661 L429.8107,442.2956 L432.899,442.2956 L432.899,443.6921 L429.8107,443.6921 L429.8107,445.7921 L433.2213,445.7921 Z " fill="#000000"/><text fill="#1A1A1A" font-family="'Times New Roman'" font-size="11" lengthAdjust="spacing" textLength="62.9331" x="447.8238" y="447.1337">workflow_run</text><line style="stroke:#2E5C8A;stroke-width:0.5;" x1="380.64" x2="550.4408" y1="457.1886" y2="457.1886"/><g data-visibility-modifier="IE_MANDATORY"><ellipse cx="390.64" cy="469.0131" fill="#000000" rx="3" ry="3" style="stroke:#000000;stroke-width:1;"/></g><text fill="#1A1A1A" font-family="'Times New Roman'" font-size="11" lengthAdjust="spacing" textLength="82.8008" x="397.64" y="471.4582">id : bigserial &#171;PK&#187;</text><line style="stroke:#2E5C8A;stroke-width:1;" x1="380.64" x2="550.4408" y1="477.8376" y2="477.8376"/><text fill="#1A1A1A" font-family="'Times New Roman'" font-size="11" lengthAdjust="spacing" textLength="120.6885" x="385.64" y="492.1071">workflow_id : UUID &#171;FK&#187;</text><text fill="#1A1A1A" font-family="'Times New Roman'" font-size="11" lengthAdjust="spacing" textLength="159.8008" x="385.64" y="504.756">workflow_revision_id : bigint &#171;FK&#187;</text><text fill="#1A1A1A" font-family="'Times New Roman'" font-size="11" lengthAdjust="spacing" textLength="66.5854" x="385.64" y="517.4049">status : varchar</text><text fill="#1A1A1A" font-family="'Times New Roman'" font-size="11" lengthAdjust="spacing" textLength="95.2886" x="385.64" y="530.0539">trigger_type : varchar</text><text fill="#1A1A1A" font-family="'Times New Roman'" font-size="11" lengthAdjust="spacing" textLength="105.0801" x="385.64" y="542.7028">started_at : timestamptz</text><text fill="#1A1A1A" font-family="'Times New Roman'" font-size="11" lengthAdjust="spacing" textLength="111.1978" x="385.64" y="555.3517">finished_at : timestamptz</text><text fill="#1A1A1A" font-family="'Times New Roman'" font-size="11" lengthAdjust="spacing" textLength="55.0054" x="385.64" y="568.0006">input : jsonb</text><text fill="#1A1A1A" font-family="'Times New Roman'" font-size="11" lengthAdjust="spacing" textLength="60.5054" x="385.64" y="580.6496">output : jsonb</text></g><!--class nrun--><g class="entity" data-qualified-name="nrun" data-source-line="74" id="ent0007"><rect fill="#DCE9F5" height="157.8403" rx="2" ry="2" style="stroke:#2E5C8A;stroke-width:0.5;" width="151.0254" x="390.03" y="647.0286"/><rect fill="#2E5C8A" height="28" rx="2" ry="2" style="stroke:#2E5C8A;stroke-width:0.5;" width="151.0254" x="390.03" y="647.0286"/><rect fill="#2E5C8A" height="2" style="stroke:#2E5C8A;stroke-width:0.5;" width="151.0254" x="390.03" y="673.0286"/><rect fill="none" height="157.8403" rx="2" ry="2" style="stroke:#2E5C8A;stroke-width:0.5;" width="151.0254" x="390.03" y="647.0286"/><ellipse cx="441.02" cy="661.0286" fill="#ADD1B2" rx="9" ry="9" style="stroke:#181818;stroke-width:1;"/><path d="M443.9175,665.0286 L438.9223,665.0286 L438.9223,657.0096 L443.9175,657.0096 L443.9175,658.4061 L440.5068,658.4061 L440.5068,660.1356 L443.5952,660.1356 L443.5952,661.5321 L440.5068,661.5321 L440.5068,663.6321 L443.9175,663.6321 Z " fill="#000000"/><text fill="#1A1A1A" font-family="'Times New Roman'" font-size="11" lengthAdjust="spacing" textLength="41.5454" x="458.52" y="664.9737">node_run</text><line style="stroke:#2E5C8A;stroke-width:0.5;" x1="391.03" x2="540.0554" y1="675.0286" y2="675.0286"/><g data-visibility-modifier="IE_MANDATORY"><ellipse cx="401.03" cy="686.8531" fill="#000000" rx="3" ry="3" style="stroke:#000000;stroke-width:1;"/></g><text fill="#1A1A1A" font-family="'Times New Roman'" font-size="11" lengthAdjust="spacing" textLength="82.8008" x="408.03" y="689.2982">id : bigserial &#171;PK&#187;</text><line style="stroke:#2E5C8A;stroke-width:1;" x1="391.03" x2="540.0554" y1="695.6776" y2="695.6776"/><text fill="#1A1A1A" font-family="'Times New Roman'" font-size="11" lengthAdjust="spacing" textLength="139.0254" x="396.03" y="709.9471">workflow_run_id : bigint &#171;FK&#187;</text><text fill="#1A1A1A" font-family="'Times New Roman'" font-size="11" lengthAdjust="spacing" textLength="76.9678" x="396.03" y="722.596">node_id : varchar</text><text fill="#1A1A1A" font-family="'Times New Roman'" font-size="11" lengthAdjust="spacing" textLength="87.3501" x="396.03" y="735.2449">node_type : varchar</text><text fill="#1A1A1A" font-family="'Times New Roman'" font-size="11" lengthAdjust="spacing" textLength="66.5854" x="396.03" y="747.8939">status : varchar</text><text fill="#1A1A1A" font-family="'Times New Roman'" font-size="11" lengthAdjust="spacing" textLength="95.2939" x="396.03" y="760.5428">config_hash : varchar</text><text fill="#1A1A1A" font-family="'Times New Roman'" font-size="11" lengthAdjust="spacing" textLength="78.8423" x="396.03" y="773.1917">input_json : jsonb</text><text fill="#1A1A1A" font-family="'Times New Roman'" font-size="11" lengthAdjust="spacing" textLength="84.3423" x="396.03" y="785.8406">output_json : jsonb</text><text fill="#1A1A1A" font-family="'Times New Roman'" font-size="11" lengthAdjust="spacing" textLength="89.187" x="396.03" y="798.4896">error_message : text</text></g><!--class triggers--><g class="entity" data-qualified-name="triggers" data-source-line="87" id="ent0008"><rect fill="#DCE9F5" height="132.5425" rx="2" ry="2" style="stroke:#2E5C8A;stroke-width:0.5;" width="133.8755" x="521.6" y="236.6486"/><rect fill="#2E5C8A" height="28" rx="2" ry="2" style="stroke:#2E5C8A;stroke-width:0.5;" width="133.8755" x="521.6" y="236.6486"/><rect fill="#2E5C8A" height="2" style="stroke:#2E5C8A;stroke-width:0.5;" width="133.8755" x="521.6" y="262.6486"/><rect fill="none" height="132.5425" rx="2" ry="2" style="stroke:#2E5C8A;stroke-width:0.5;" width="133.8755" x="521.6" y="236.6486"/><ellipse cx="567.987" cy="250.6486" fill="#ADD1B2" rx="9" ry="9" style="stroke:#181818;stroke-width:1;"/><path d="M570.8844,254.6486 L565.8893,254.6486 L565.8893,246.6296 L570.8844,246.6296 L570.8844,248.0261 L567.4738,248.0261 L567.4738,249.7556 L570.5622,249.7556 L570.5622,251.1521 L567.4738,251.1521 L567.4738,253.2521 L570.8844,253.2521 Z " fill="#000000"/><text fill="#1A1A1A" font-family="'Times New Roman'" font-size="11" lengthAdjust="spacing" textLength="33.6016" x="585.487" y="254.5937">triggers</text><line style="stroke:#2E5C8A;stroke-width:0.5;" x1="522.6" x2="654.4755" y1="264.6486" y2="264.6486"/><g data-visibility-modifier="IE_MANDATORY"><ellipse cx="532.6" cy="276.4731" fill="#000000" rx="3" ry="3" style="stroke:#000000;stroke-width:1;"/></g><text fill="#1A1A1A" font-family="'Times New Roman'" font-size="11" lengthAdjust="spacing" textLength="82.8008" x="539.6" y="278.9182">id : bigserial &#171;PK&#187;</text><line style="stroke:#2E5C8A;stroke-width:1;" x1="522.6" x2="654.4755" y1="285.2976" y2="285.2976"/><text fill="#1A1A1A" font-family="'Times New Roman'" font-size="11" lengthAdjust="spacing" textLength="120.6885" x="527.6" y="299.5671">workflow_id : UUID &#171;FK&#187;</text><text fill="#1A1A1A" font-family="'Times New Roman'" font-size="11" lengthAdjust="spacing" textLength="60.4678" x="527.6" y="312.216">type : varchar</text><text fill="#1A1A1A" font-family="'Times New Roman'" font-size="11" lengthAdjust="spacing" textLength="60.4946" x="527.6" y="324.8649">config : jsonb</text><text fill="#1A1A1A" font-family="'Times New Roman'" font-size="11" lengthAdjust="spacing" textLength="121.8755" x="527.6" y="337.5139">token : varchar &#171;UNIQUE&#187;</text><text fill="#1A1A1A" font-family="'Times New Roman'" font-size="11" lengthAdjust="spacing" textLength="77.5801" x="527.6" y="350.1628">enabled : boolean</text><text fill="#1A1A1A" font-family="'Times New Roman'" font-size="11" lengthAdjust="spacing" textLength="76.9678" x="527.6" y="362.8117">node_id : varchar</text></g><!--class blob--><g class="entity" data-qualified-name="blob" data-source-line="98" id="ent0009"><rect fill="#DCE9F5" height="94.5957" rx="2" ry="2" style="stroke:#2E5C8A;stroke-width:0.5;" width="169.707" x="720.69" y="63.0786"/><rect fill="#2E5C8A" height="28" rx="2" ry="2" style="stroke:#2E5C8A;stroke-width:0.5;" width="169.707" x="720.69" y="63.0786"/><rect fill="#2E5C8A" height="2" style="stroke:#2E5C8A;stroke-width:0.5;" width="169.707" x="720.69" y="89.0786"/><rect fill="none" height="94.5957" rx="2" ry="2" style="stroke:#2E5C8A;stroke-width:0.5;" width="169.707" x="720.69" y="63.0786"/><ellipse cx="777.0462" cy="77.0786" fill="#ADD1B2" rx="9" ry="9" style="stroke:#181818;stroke-width:1;"/><path d="M779.9437,81.0786 L774.9485,81.0786 L774.9485,73.0596 L779.9437,73.0596 L779.9437,74.4561 L776.533,74.4561 L776.533,76.1856 L779.6214,76.1856 L779.6214,77.5821 L776.533,77.5821 L776.533,79.6821 L779.9437,79.6821 Z " fill="#000000"/><text fill="#1A1A1A" font-family="'Times New Roman'" font-size="11" lengthAdjust="spacing" textLength="49.4946" x="794.5462" y="81.0237">blob_index</text><line style="stroke:#2E5C8A;stroke-width:0.5;" x1="721.69" x2="889.397" y1="91.0786" y2="91.0786"/><g data-visibility-modifier="IE_MANDATORY"><ellipse cx="731.69" cy="102.9031" fill="#000000" rx="3" ry="3" style="stroke:#000000;stroke-width:1;"/></g><text fill="#1A1A1A" font-family="'Times New Roman'" font-size="11" lengthAdjust="spacing" textLength="145.707" x="738.69" y="105.3482">content_hash : varchar(64) &#171;PK&#187;</text><line style="stroke:#2E5C8A;stroke-width:1;" x1="721.69" x2="889.397" y1="111.7276" y2="111.7276"/><text fill="#1A1A1A" font-family="'Times New Roman'" font-size="11" lengthAdjust="spacing" textLength="72.6924" x="726.69" y="125.9971">s3_key : varchar</text><text fill="#1A1A1A" font-family="'Times New Roman'" font-size="11" lengthAdjust="spacing" textLength="80.0454" x="726.69" y="138.646">size_bytes : bigint</text><text fill="#1A1A1A" font-family="'Times New Roman'" font-size="11" lengthAdjust="spacing" textLength="107.5078" x="726.69" y="151.2949">created_at : timestamptz</text></g><g class="entity" data-qualified-name="GMN19" data-source-line="119" id="ent0020"><path d="M690.98,268.2986 L690.98,337.5433 A2,2 0 0 0 692.98,339.5433 L918.1099,339.5433 A2,2 0 0 0 920.1099,337.5433 L920.1099,276.2986 L910.1099,266.2986 L809.54,266.2986 L805.54,157.9686 L801.54,266.2986 L692.98,266.2986 A2,2 0 0 0 690.98,268.2986" fill="#FEFFDD" style="stroke:#181818;stroke-width:0.5;"/><path d="M910.1099,266.2986 L910.1099,275.2986 A1,1 0 0 0 911.1099,276.2986 L920.1099,276.2986 L910.1099,266.2986" fill="#FEFFDD" style="stroke:#181818;stroke-width:0.5;"/><text fill="#000000" font-family="'Times New Roman'" font-size="11" lengthAdjust="spacing" textLength="145.3525" x="696.98" y="281.5682">&#1050;&#1086;&#1085;&#1090;&#1077;&#1085;&#1090;-&#1072;&#1076;&#1088;&#1077;&#1089;&#1091;&#1077;&#1084;&#1086;&#1077; &#1093;&#1088;&#1072;&#1085;&#1077;&#1085;&#1080;&#1077;:</text><text fill="#000000" font-family="'Times New Roman'" font-size="11" lengthAdjust="spacing" textLength="124.9692" x="696.98" y="294.2171">content_hash = SHA-256 &#1086;&#1090;</text><text fill="#000000" font-family="'Times New Roman'" font-size="11" lengthAdjust="spacing" textLength="154.2686" x="696.98" y="306.866">&#1082;&#1072;&#1085;&#1086;&#1085;&#1080;&#1079;&#1086;&#1074;&#1072;&#1085;&#1085;&#1086;&#1075;&#1086; JSON &#1082;&#1086;&#1085;&#1092;&#1080;&#1075;&#1072;.</text><text fill="#000000" font-family="'Times New Roman'" font-size="11" lengthAdjust="spacing" textLength="208.1299" x="696.98" y="319.5149">&#1061;&#1088;&#1072;&#1085;&#1080;&#1090;&#1089;&#1103; &#1074; MinIO &#1087;&#1086;&#1076; &#1082;&#1083;&#1102;&#1095;&#1086;&#1084; blobs/{hash}.</text><text fill="#000000" font-family="'Times New Roman'" font-size="11" lengthAdjust="spacing" textLength="197.8872" x="696.98" y="332.1639">node_run.config_hash &#1089;&#1089;&#1099;&#1083;&#1072;&#1077;&#1090;&#1089;&#1103; &#1085;&#1072; &#1079;&#1072;&#1087;&#1080;&#1089;&#1100;.</text></g><!--link workflows to revision--><g class="link" data-entity-1="ent0002" data-entity-2="ent0003" data-link-type="crowfoot" data-source-line="106" id="lnk10"><path codeLine="106" d="M314.54,184.9086 C314.54,204.9086 314.54,200.8086 314.54,220.6586" fill="none" id="workflows-revision" style="stroke:#404040;stroke-width:1;"/><line style="stroke:#404040;stroke-width:1;" x1="310.54" x2="318.54" y1="180.9086" y2="180.9086"/><line style="stroke:#404040;stroke-width:1;" x1="310.54" x2="318.54" y1="183.9086" y2="183.9086"/><line style="stroke:#404040;stroke-width:1;" x1="314.54" x2="314.54" y1="184.9086" y2="176.9086"/><line style="stroke:#404040;stroke-width:1;" x1="314.54" x2="320.54" y1="230.6586" y2="238.6586"/><line style="stroke:#404040;stroke-width:1;" x1="314.54" x2="308.54" y1="230.6586" y2="238.6586"/><line style="stroke:#404040;stroke-width:1;" x1="314.54" x2="314.54" y1="230.6586" y2="238.6586"/><ellipse cx="314.54" cy="224.6586" fill="none" rx="4" ry="4" style="stroke:#404040;stroke-width:1;"/><text fill="#000000" font-family="'Times New Roman'" font-size="11" lengthAdjust="spacing" textLength="114.27" x="199.54" y="205.0482">ON DELETE CASCADE</text></g><!--link workflows to version--><g class="link" data-entity-1="ent0002" data-entity-2="ent0004" data-link-type="crowfoot" data-source-line="107" id="lnk11"><path codeLine="107" d="M227.81,87.8686 C157.35,87.8686 73.08,87.8686 73.08,87.8686 C73.08,87.8686 73.08,322.5286 73.08,436.0286" fill="none" id="workflows-version" style="stroke:#404040;stroke-width:1;"/><line style="stroke:#404040;stroke-width:1;" x1="231.81" x2="231.81" y1="83.8686" y2="91.8686"/><line style="stroke:#404040;stroke-width:1;" x1="228.81" x2="228.81" y1="83.8686" y2="91.8686"/><line style="stroke:#404040;stroke-width:1;" x1="227.81" x2="235.81" y1="87.8686" y2="87.8686"/><line style="stroke:#404040;stroke-width:1;" x1="73.08" x2="79.08" y1="446.0286" y2="454.0286"/><line style="stroke:#404040;stroke-width:1;" x1="73.08" x2="67.08" y1="446.0286" y2="454.0286"/><line style="stroke:#404040;stroke-width:1;" x1="73.08" x2="73.08" y1="446.0286" y2="454.0286"/><ellipse cx="73.08" cy="440.0286" fill="none" rx="4" ry="4" style="stroke:#404040;stroke-width:1;"/></g><!--link workflows to snapshot--><g class="link" data-entity-1="ent0002" data-entity-2="ent0005" data-link-type="crowfoot" data-source-line="108" id="lnk12"><path codeLine="108" d="M227.67,132.8686 C203.22,132.8686 190.56,132.8686 190.56,132.8686 C190.56,132.8686 190.56,507.8686 190.56,507.8686 C190.56,507.8686 180.75,507.8686 192.07,507.8686" fill="none" id="workflows-snapshot" style="stroke:#404040;stroke-width:1;"/><line style="stroke:#404040;stroke-width:1;" x1="231.67" x2="231.67" y1="128.8686" y2="136.8686"/><line style="stroke:#404040;stroke-width:1;" x1="228.67" x2="228.67" y1="128.8686" y2="136.8686"/><line style="stroke:#404040;stroke-width:1;" x1="227.67" x2="235.67" y1="132.8686" y2="132.8686"/><line style="stroke:#404040;stroke-width:1;" x1="202.07" x2="210.07" y1="507.8686" y2="501.8686"/><line style="stroke:#404040;stroke-width:1;" x1="202.07" x2="210.07" y1="507.8686" y2="513.8686"/><line style="stroke:#404040;stroke-width:1;" x1="202.07" x2="210.07" y1="507.8686" y2="507.8686"/><ellipse cx="196.07" cy="507.8686" fill="none" rx="4" ry="4" style="stroke:#404040;stroke-width:1;"/></g><!--link workflows to wrun--><g class="link" data-entity-1="ent0002" data-entity-2="ent0006" data-link-type="crowfoot" data-source-line="109" id="lnk13"><path codeLine="109" d="M401.25,169.8686 C439.09,169.8686 468.35,169.8686 468.35,169.8686 C468.35,169.8686 468.35,310.8286 468.35,410.8086" fill="none" id="workflows-wrun" style="stroke:#404040;stroke-width:1;"/><line style="stroke:#404040;stroke-width:1;" x1="397.25" x2="397.25" y1="173.8686" y2="165.8686"/><line style="stroke:#404040;stroke-width:1;" x1="400.25" x2="400.25" y1="173.8686" y2="165.8686"/><line style="stroke:#404040;stroke-width:1;" x1="401.25" x2="393.25" y1="169.8686" y2="169.8686"/><line style="stroke:#404040;stroke-width:1;" x1="468.35" x2="474.35" y1="420.8086" y2="428.8086"/><line style="stroke:#404040;stroke-width:1;" x1="468.35" x2="462.35" y1="420.8086" y2="428.8086"/><line style="stroke:#404040;stroke-width:1;" x1="468.35" x2="468.35" y1="420.8086" y2="428.8086"/><ellipse cx="468.35" cy="414.8086" fill="none" rx="4" ry="4" style="stroke:#404040;stroke-width:1;"/><text fill="#000000" font-family="'Times New Roman'" font-size="11" lengthAdjust="spacing" textLength="114.27" x="411.35" y="273.0582">ON DELETE CASCADE</text></g><!--link workflows to triggers--><g class="link" data-entity-1="ent0002" data-entity-2="ent0008" data-link-type="crowfoot" data-source-line="110" id="lnk14"><path codeLine="110" d="M401.43,163.8686 C482.37,163.8686 588.54,163.8686 588.54,163.8686 C588.54,163.8686 588.54,182.5586 588.54,218.2386" fill="none" id="workflows-triggers" style="stroke:#404040;stroke-width:1;"/><line style="stroke:#404040;stroke-width:1;" x1="397.43" x2="397.43" y1="167.8686" y2="159.8686"/><line style="stroke:#404040;stroke-width:1;" x1="400.43" x2="400.43" y1="167.8686" y2="159.8686"/><line style="stroke:#404040;stroke-width:1;" x1="401.43" x2="393.43" y1="163.8686" y2="163.8686"/><line style="stroke:#404040;stroke-width:1;" x1="588.54" x2="594.54" y1="228.2386" y2="236.2386"/><line style="stroke:#404040;stroke-width:1;" x1="588.54" x2="582.54" y1="228.2386" y2="236.2386"/><line style="stroke:#404040;stroke-width:1;" x1="588.54" x2="588.54" y1="228.2386" y2="236.2386"/><ellipse cx="588.54" cy="222.2386" fill="none" rx="4" ry="4" style="stroke:#404040;stroke-width:1;"/></g><!--link revision to version--><g class="link" data-entity-1="ent0003" data-entity-2="ent0004" data-link-type="crowfoot" data-source-line="112" id="lnk15"><path codeLine="112" d="M205.76,302.8686 C159.17,302.8686 122,302.8686 122,302.8686 C122,302.8686 122,375.3786 122,436.1886" fill="none" id="revision-version" style="stroke:#404040;stroke-width:1;"/><line style="stroke:#404040;stroke-width:1;" x1="209.76" x2="209.76" y1="298.8686" y2="306.8686"/><line style="stroke:#404040;stroke-width:1;" x1="206.76" x2="206.76" y1="298.8686" y2="306.8686"/><line style="stroke:#404040;stroke-width:1;" x1="205.76" x2="213.76" y1="302.8686" y2="302.8686"/><line style="stroke:#404040;stroke-width:1;" x1="122" x2="128" y1="446.1886" y2="454.1886"/><line style="stroke:#404040;stroke-width:1;" x1="122" x2="116" y1="446.1886" y2="454.1886"/><line style="stroke:#404040;stroke-width:1;" x1="122" x2="122" y1="446.1886" y2="454.1886"/><ellipse cx="122" cy="440.1886" fill="none" rx="4" ry="4" style="stroke:#404040;stroke-width:1;"/><text fill="#000000" font-family="'Times New Roman'" font-size="11" lengthAdjust="spacing" textLength="114.877" x="7" y="316.9182">ON DELETE RESTRICT</text><text fill="#000000" font-family="'Times New Roman'" font-size="11" lengthAdjust="spacing" textLength="75.582" x="26.6475" y="329.5671">(&#1079;&#1072;&#1097;&#1080;&#1090;&#1072; &#1074;&#1077;&#1088;&#1089;&#1080;&#1081;)</text></g><!--link revision to snapshot--><g class="link" data-entity-1="ent0003" data-entity-2="ent0005" data-link-type="crowfoot" data-source-line="113" id="lnk16"><path codeLine="113" d="M278.44,375.2786 C278.44,401.0186 278.44,404.4986 278.44,429.8186" fill="none" id="revision-snapshot" style="stroke:#404040;stroke-width:1;"/><line style="stroke:#404040;stroke-width:1;" x1="274.44" x2="282.44" y1="371.2786" y2="371.2786"/><line style="stroke:#404040;stroke-width:1;" x1="274.44" x2="282.44" y1="374.2786" y2="374.2786"/><line style="stroke:#404040;stroke-width:1;" x1="278.44" x2="278.44" y1="375.2786" y2="367.2786"/><line style="stroke:#404040;stroke-width:1;" x1="278.44" x2="284.44" y1="439.8186" y2="447.8186"/><line style="stroke:#404040;stroke-width:1;" x1="278.44" x2="272.44" y1="439.8186" y2="447.8186"/><line style="stroke:#404040;stroke-width:1;" x1="278.44" x2="278.44" y1="439.8186" y2="447.8186"/><ellipse cx="278.44" cy="433.8186" fill="none" rx="4" ry="4" style="stroke:#404040;stroke-width:1;"/></g><!--link revision to wrun--><g class="link" data-entity-1="ent0003" data-entity-2="ent0006" data-link-type="crowfoot" data-source-line="114" id="lnk17"><path codeLine="114" d="M397.37,375.2786 C397.37,394.7886 397.37,390.4486 397.37,410.8186" fill="none" id="revision-wrun" style="stroke:#404040;stroke-width:1;"/><line style="stroke:#404040;stroke-width:1;" x1="393.37" x2="401.37" y1="371.2786" y2="371.2786"/><line style="stroke:#404040;stroke-width:1;" x1="393.37" x2="401.37" y1="374.2786" y2="374.2786"/><line style="stroke:#404040;stroke-width:1;" x1="397.37" x2="397.37" y1="375.2786" y2="367.2786"/><line style="stroke:#404040;stroke-width:1;" x1="397.37" x2="403.37" y1="420.8186" y2="428.8186"/><line style="stroke:#404040;stroke-width:1;" x1="397.37" x2="391.37" y1="420.8186" y2="428.8186"/><line style="stroke:#404040;stroke-width:1;" x1="397.37" x2="397.37" y1="420.8186" y2="428.8186"/><ellipse cx="397.37" cy="414.8186" fill="none" rx="4" ry="4" style="stroke:#404040;stroke-width:1;"/></g><!--link wrun to nrun--><g class="link" data-entity-1="ent0006" data-entity-2="ent0007" data-link-type="crowfoot" data-source-line="116" id="lnk18"><path codeLine="116" d="M465.54,595.3686 C465.54,614.7086 465.54,609.4086 465.54,628.7486" fill="none" id="wrun-nrun" style="stroke:#404040;stroke-width:1;"/><line style="stroke:#404040;stroke-width:1;" x1="461.54" x2="469.54" y1="591.3686" y2="591.3686"/><line style="stroke:#404040;stroke-width:1;" x1="461.54" x2="469.54" y1="594.3686" y2="594.3686"/><line style="stroke:#404040;stroke-width:1;" x1="465.54" x2="465.54" y1="595.3686" y2="587.3686"/><line style="stroke:#404040;stroke-width:1;" x1="465.54" x2="471.54" y1="638.7486" y2="646.7486"/><line style="stroke:#404040;stroke-width:1;" x1="465.54" x2="459.54" y1="638.7486" y2="646.7486"/><line style="stroke:#404040;stroke-width:1;" x1="465.54" x2="465.54" y1="638.7486" y2="646.7486"/><ellipse cx="465.54" cy="632.7486" fill="none" rx="4" ry="4" style="stroke:#404040;stroke-width:1;"/><text fill="#000000" font-family="'Times New Roman'" font-size="11" lengthAdjust="spacing" textLength="114.27" x="350.54" y="614.3282">ON DELETE CASCADE</text></g><?plantuml-src hLPTRzis57tNho2ybsIOiwLBWixe2dYEWwRhqZPEtWO8b4NBd6NI8AcuQHgWwPeDGuRrVMzxs7lMnaYwjDvVeFxHBgaFovQDhaCim1BlkRoyvzmhYh97sG0Bt4SURlS2mIFcDtZ81Vfao_uScNkae614eBM2NNQnpuUK1QY3GqaAY4ywE0hL5cTg1_S9gkpHFf5eXmpHBkzZLfdlsw9F2LfTBO0XPKGT3WZYGdMvKq3Q8POI7Ja8VjzmuHEHfd-hkTwuNK_iizGs6ysljjOjTezWc5FoACnEF4nUqy8Oh61ThPlBMkj2y65gNll2N8bPAK6zI97oh6F7KLI51Ea_ubCzqk_qEOgVmyDr_2h-IL_fiNuFrrY_HVelVQulupEaB-01hF5PV8gM7d6f0a5QZn-WrOrbno4C0XwYof2BNYVaGrb1MA9yb2hsAQ8-gg7z_UrDTEVEes_lthNcQjNUcAbP3HrWqUvYOKq-aMr11ufo1eWYJvGrjoCXO4NtW0W9a6kZUZIWJ47ShImkbQvF-jnWd8S4isIo85WHtyNAX3GTed1_e9vQC1huyy7ZCaTNa0DgrhTSiy4qLKXA4a5nE8Tl7gSeIfvy5izbKT-3Lw26W9r50e47NLVsI4YKrUK7oPdtOMxfilixsu_tcsYfiFndiwijp-MRoctffiytnfPpbUkvg9vPkHKEPlfa8UzvD2J30zdbolB81ZTUjWKSFgB9FuQJY9Ao3E7XfgYK-dmH9qXCHNA65Mm-GK24Q_VHQGZynS8kxL16PNSH2ljmfAPQdaUgQ2g8mxXFSc7O_nC6PYsif0bliI8tQvtFkQnHcxCE3TmkbjqPnF9q3QKvPCjs0fy0uO9K4WSaQwA256anabqv6znKdynXcn2RIb7n7c4JDmYGR4Hf4CAm5n9_PgykQrmWvONSSodpoHDBomnpIf20Cb-8QMcNDjQMvz2JNxezSZXRC3WLkDwX8ZAl_WTVoydtxjcpQfKVJJuADLHvk8Cscm-QUqtKgBSQzSrcfUoVxd1b8DkcoeXzu_zZ-ApoZfCdDhtmTA3TPcjlTxknzprRqfVwFFv5NyKluAYWN-jH_3m-WOF2s-LAALQUwonWKWMHJCAfXIrEtc5S4MW6fNWVyOujhos0_jqSJo2HaVclmgdamfnTufFuHtkK6UiHYa_1P8uhu0DPZcfPLqwQuclKkbUltbhVG7eSlqWY_stdZEsSIxY_JeuyyFH6Zz7z5gG9FcRrb-3nHf-l9FF-J5S3UI2DLo0G-ewoxOT8_mFU5sRITVnR_3CCtbaYylCZayJnogJBGOcLudu0WKxYCtqDWKTPsFT6VAW4XBq2owyhy2xuo0Zb_0i0?></g></svg>