<svg xmlns="http://www.w3.org/2000/svg" xmlns:xlink="http://www.w3.org/1999/xlink" contentStyleType="text/css" data-diagram-type="DESCRIPTION" height="330px" preserveAspectRatio="none" style="width:1638px;height:330px;background:#FFFFFF;" version="1.1" viewBox="0 0 1638 330" width="1638px" zoomAndPan="magnify"><?plantuml 1.2026.3?><defs/><g><!--cluster ????????? ?????????????? (Docker Compose)--><g class="cluster" data-qualified-name="......... .............. .Docker Compose." data-source-line="36" id="ent0005"><path d="M380.4093,6 L607.9215,6 A6,6 0 0 1 611.9215,10 L618.9215,24.6489 L1139.3993,24.6489 A4,4 0 0 1 1143.3993,28.6489 L1143.3993,311 A4,4 0 0 1 1139.3993,315 L380.4093,315 A4,4 0 0 1 376.4093,311 L376.4093,10 A4,4 0 0 1 380.4093,6" fill="none" style="stroke:#000000;stroke-width:1.5;"/><line style="stroke:#000000;stroke-width:1.5;" x1="376.4093" x2="618.9215" y1="24.6489" y2="24.6489"/><text fill="#000000" font-family="'Times New Roman'" font-size="11" font-weight="700" lengthAdjust="spacing" textLength="229.5122" x="380.4093" y="18.2695">&#1057;&#1077;&#1088;&#1074;&#1077;&#1088;&#1085;&#1072;&#1103; &#1080;&#1085;&#1092;&#1088;&#1072;&#1089;&#1090;&#1088;&#1091;&#1082;&#1090;&#1091;&#1088;&#1072; (Docker Compose)</text></g><!--entity Front--><g class="entity" data-qualified-name="......... .............. .Docker Compose..Front" data-source-line="37" id="ent0006"><rect fill="#DCE9F5" height="57.9468" rx="4" ry="4" style="stroke:#2E5C8A;stroke-width:0.5;" width="155.126" x="392.4093" y="77.03"/><text fill="#1A1A1A" font-family="'Times New Roman'" font-size="11" lengthAdjust="spacing" textLength="39.7192" x="402.4093" y="97.2995">Frontend</text><text fill="#1A1A1A" font-family="'Times New Roman'" font-size="11" lengthAdjust="spacing" textLength="135.126" x="402.4093" y="109.9485">Angular 19.2 + TypeScript 5.6</text><text fill="#1A1A1A" font-family="'Times New Roman'" font-size="11" lengthAdjust="spacing" textLength="129.8999" x="402.4093" y="122.5974">SPA &#1085;&#1072; &#1089;&#1090;&#1072;&#1090;&#1080;&#1095;&#1077;&#1089;&#1082;&#1086;&#1084; &#1073;&#1072;&#1085;&#1076;&#1083;&#1077;</text></g><!--entity Back--><g class="entity" data-qualified-name="......... .............. .Docker Compose..Back" data-source-line="39" id="ent0007"><rect fill="#DCE9F5" height="95.8936" rx="4" ry="4" style="stroke:#2E5C8A;stroke-width:0.5;" width="198.5405" x="669.5393" y="96.05"/><text fill="#1A1A1A" font-family="'Times New Roman'" font-size="11" lengthAdjust="spacing" textLength="38.4839" x="679.5393" y="116.3195">Backend</text><text fill="#1A1A1A" font-family="'Times New Roman'" font-size="11" lengthAdjust="spacing" textLength="178.5405" x="679.5393" y="128.9685">Kotlin 2.2 + Spring Boot 3.5.3 (JDK 24)</text><text fill="#1A1A1A" font-family="'Times New Roman'" font-size="11" lengthAdjust="spacing" textLength="131.9893" x="679.5393" y="141.6174">REST /v1, WebSocket /v1/ws</text><text fill="#1A1A1A" font-family="'Times New Roman'" font-size="11" lengthAdjust="spacing" textLength="140.5454" x="679.5393" y="154.2663">&#1044;&#1074;&#1080;&#1078;&#1086;&#1082; &#1080;&#1089;&#1087;&#1086;&#1083;&#1085;&#1077;&#1085;&#1080;&#1103; workflow</text><text fill="#1A1A1A" font-family="'Times New Roman'" font-size="11" lengthAdjust="spacing" textLength="158.4741" x="679.5393" y="166.9152">(&#1084;&#1086;&#1076;&#1091;&#1083;&#1100;&#1085;&#1099;&#1081; &#1084;&#1086;&#1085;&#1086;&#1083;&#1080;&#1090;, 11 &#1087;&#1072;&#1082;&#1077;&#1090;&#1086;&#1074;;</text><text fill="#1A1A1A" font-family="'Times New Roman'" font-size="11" lengthAdjust="spacing" textLength="171.3862" x="679.5393" y="179.5642">&#1087;&#1091;&#1083; &#1087;&#1086;&#1090;&#1086;&#1082;&#1086;&#1074; WorkflowExecutor = 16)</text></g><!--entity PG--><g class="entity" data-qualified-name="......... .............. .Docker Compose..PG" data-source-line="41" id="ent0008"><path d="M961.0793,229.2 C961.0793,219.2 1044.2363,219.2 1044.2363,219.2 C1044.2363,219.2 1127.3933,219.2 1127.3933,229.2 L1127.3933,288.7957 C1127.3933,298.7957 1044.2363,298.7957 1044.2363,298.7957 C1044.2363,298.7957 961.0793,298.7957 961.0793,288.7957 L961.0793,229.2" fill="#DCE9F5" style="stroke:#2E5C8A;stroke-width:0.5;"/><path d="M961.0793,229.2 C961.0793,239.2 1044.2363,239.2 1044.2363,239.2 C1044.2363,239.2 1127.3933,239.2 1127.3933,229.2" fill="none" style="stroke:#2E5C8A;stroke-width:0.5;"/><text fill="#000000" font-family="'Times New Roman'" font-size="11" lengthAdjust="spacing" textLength="67.5308" x="971.0793" y="253.4695">PostgreSQL 16</text><text fill="#000000" font-family="'Times New Roman'" font-size="11" lengthAdjust="spacing" textLength="146.314" x="971.0793" y="266.1185">metadata, graph_skeleton (jsonb)</text><text fill="#000000" font-family="'Times New Roman'" font-size="11" lengthAdjust="spacing" textLength="109.9785" x="971.0793" y="278.7674">workflow_run, node_run</text><text fill="#000000" font-family="'Times New Roman'" font-size="11" lengthAdjust="spacing" textLength="88.5962" x="971.0793" y="291.4163">triggers, blob_index</text></g><!--entity S3--><g class="entity" data-qualified-name="......... .............. .Docker Compose..S3" data-source-line="43" id="ent0009"><path d="M968.4093,114.2 C968.4093,104.2 1044.2375,104.2 1044.2375,104.2 C1044.2375,104.2 1120.0656,104.2 1120.0656,114.2 L1120.0656,173.7957 C1120.0656,183.7957 1044.2375,183.7957 1044.2375,183.7957 C1044.2375,183.7957 968.4093,183.7957 968.4093,173.7957 L968.4093,114.2" fill="#DCE9F5" style="stroke:#2E5C8A;stroke-width:0.5;"/><path d="M968.4093,114.2 C968.4093,124.2 1044.2375,124.2 1044.2375,124.2 C1044.2375,124.2 1120.0656,124.2 1120.0656,114.2" fill="none" style="stroke:#2E5C8A;stroke-width:0.5;"/><text fill="#000000" font-family="'Times New Roman'" font-size="11" lengthAdjust="spacing" textLength="29.9438" x="978.4093" y="138.4695">MinIO</text><text fill="#000000" font-family="'Times New Roman'" font-size="11" lengthAdjust="spacing" textLength="61.3916" x="978.4093" y="151.1185">object storage</text><text fill="#000000" font-family="'Times New Roman'" font-size="11" lengthAdjust="spacing" textLength="131.6563" x="978.4093" y="163.7674">content-addressed (SHA-256)</text><text fill="#000000" font-family="'Times New Roman'" font-size="11" lengthAdjust="spacing" textLength="83.3916" x="978.4093" y="176.4163">bucket: a11a-blobs</text></g><!--entity Proxy--><g class="entity" data-qualified-name="......... .............. .Docker Compose..Proxy" data-source-line="45" id="ent0010"><rect fill="#DCE9F5" height="32.6489" rx="4" ry="4" style="stroke:#2E5C8A;stroke-width:0.5;" width="111.0186" x="988.7293" y="36.68"/><text fill="#1A1A1A" font-family="'Times New Roman'" font-size="11" lengthAdjust="spacing" textLength="91.0186" x="998.7293" y="56.9495">docker-socket-proxy</text></g><!--entity User--><g class="entity" data-qualified-name="User" data-source-line="31" id="ent0002"><ellipse cx="58.3525" cy="75.18" fill="#DCE9F5" rx="8" ry="8" style="stroke:#2E5C8A;stroke-width:0.5;"/><path d="M58.3525,83.18 L58.3525,110.18 M45.3525,91.18 L71.3525,91.18 M58.3525,110.18 L45.3525,125.18 M58.3525,110.18 L71.3525,125.18" fill="none" style="stroke:#2E5C8A;stroke-width:0.5;"/><text fill="#000000" font-family="'Times New Roman'" font-size="11" lengthAdjust="spacing" textLength="64.0664" x="26.3193" y="136.9495">&#1055;&#1086;&#1083;&#1100;&#1079;&#1086;&#1074;&#1072;&#1090;&#1077;&#1083;&#1100;</text></g><!--entity Ext--><g class="entity" data-qualified-name="Ext" data-source-line="32" id="ent0003"><path d="M20.9525,183.3174 C23.437,177.5356 29.0324,176.6693 33.2436,181.2742 C36.5698,174.2542 43.4352,174.3286 46.9913,181.0441 C50.7794,174.7677 54.9958,173.0165 60.4723,179.2202 C65.709,174.4345 69.0843,175.1843 71.6837,181.8111 C76.085,176.6722 80.147,176.2799 84.0342,182.3763 C88.5824,176.5995 93.2205,175.7624 97.409,182.7531 C108.0715,186.871 111.7191,193.6851 104.2452,203.7172 C111.4048,211.782 109.1773,220.2504 97.8461,221.7558 C95.3537,229.923 91.3543,230.8755 85.048,225.3102 C81.9039,231.5344 76.6704,232.8463 72.0528,226.8811 C69.8968,233.7832 63.6149,234.7088 59.1684,229.2733 C53.8876,234.9451 49.2882,234.0037 46.1714,227.0463 C42.8225,231.8536 37.3664,230.9354 34.8886,226.034 C29.3488,231.7721 23.1652,229.0085 22.0308,221.6943 C9.8798,219.6459 9.3867,212.7401 14.0854,203.3812 C6,194.9311 9.8277,185.1926 20.9525,183.3174" fill="#F1F3F5" style="stroke:#6C757D;stroke-width:0.5;"/><text fill="#000000" font-family="'Times New Roman'" font-size="11" lengthAdjust="spacing" textLength="43.2319" x="27.5093" y="199.6195">&#1042;&#1085;&#1077;&#1096;&#1085;&#1080;&#1077;</text><text fill="#000000" font-family="'Times New Roman'" font-size="11" lengthAdjust="spacing" textLength="61.6816" x="27.5093" y="212.2685">web-&#1089;&#1080;&#1089;&#1090;&#1077;&#1084;&#1099;</text></g><!--entity Nginx--><g class="entity" data-qualified-name="Nginx" data-source-line="34" id="ent0004"><rect fill="#DCE9F5" height="57.9468" rx="4" ry="4" style="stroke:#2E5C8A;stroke-width:0.5;" width="105.2231" x="209.1893" y="124.03"/><text fill="#1A1A1A" font-family="'Times New Roman'" font-size="11" lengthAdjust="spacing" textLength="27.5" x="219.1893" y="144.2995">Nginx</text><text fill="#1A1A1A" font-family="'Times New Roman'" font-size="11" lengthAdjust="spacing" textLength="85.2231" x="219.1893" y="156.9485">TLS, reverse proxy</text><text fill="#1A1A1A" font-family="'Times New Roman'" font-size="11" lengthAdjust="spacing" textLength="49.8008" x="219.1893" y="169.5974">fluxpilot.ru</text></g><!--entity Docker--><g class="entity" data-qualified-name="Docker" data-source-line="48" id="ent0011"><rect fill="#DCE9F5" height="32.6489" rx="4" ry="4" style="stroke:#2E5C8A;stroke-width:0.5;" width="118.3555" x="1248.3993" y="36.68"/><text fill="#1A1A1A" font-family="'Times New Roman'" font-size="11" lengthAdjust="spacing" textLength="98.3555" x="1258.3993" y="56.9495">Docker daemon (host)</text></g><!--entity Sandbox--><g class="entity" data-qualified-name="Sandbox" data-source-line="49" id="ent0012"><rect fill="#DCE9F5" height="83.2446" rx="4" ry="4" style="stroke:#2E5C8A;stroke-width:0.5;" width="170.0093" x="1454.7493" y="11.38"/><text fill="#1A1A1A" font-family="'Times New Roman'" font-size="11" lengthAdjust="spacing" textLength="86.4531" x="1464.7493" y="31.6495">Sandbox containers</text><text fill="#1A1A1A" font-family="'Times New Roman'" font-size="11" lengthAdjust="spacing" textLength="150.0093" x="1464.7493" y="44.2985">python:3.11-slim / node:20-alpine</text><text fill="#1A1A1A" font-family="'Times New Roman'" font-size="11" lengthAdjust="spacing" text-decoration="line-through" textLength="60.1777" x="1464.7493" y="56.9474">network none</text><text fill="#1A1A1A" font-family="'Times New Roman'" font-size="11" lengthAdjust="spacing" textLength="42.147" x="1527.6771" y="56.9474">read-only</text><text fill="#1A1A1A" font-family="'Times New Roman'" font-size="11" lengthAdjust="spacing" text-decoration="line-through" textLength="64.4639" x="1464.7493" y="69.5963">memory 256m</text><text fill="#1A1A1A" font-family="'Times New Roman'" font-size="11" lengthAdjust="spacing" textLength="28.4131" x="1531.9632" y="69.5963">cpus 1</text><text fill="#1A1A1A" font-family="'Times New Roman'" font-size="11" lengthAdjust="spacing" textLength="70.5493" x="1464.7493" y="82.2452">--cap-drop ALL</text></g><!--link User to Nginx--><g class="link" data-entity-1="ent0002" data-entity-2="ent0004" data-link-type="dependency" data-source-line="51" id="lnk13"><path d="M90.8293,110.81 C122.3693,118.64 165.6358,129.3854 202.9658,138.6454" fill="none" id="User-to-Nginx" style="stroke:#404040;stroke-width:1;"/><polygon fill="#404040" points="208.7893,140.09,201.0171,134.0408,203.9364,138.8862,199.091,141.8055,208.7893,140.09" style="stroke:#404040;stroke-width:1;"/><text fill="#000000" font-family="'Times New Roman'" font-size="9" lengthAdjust="spacing" textLength="65.373" x="124.1893" y="116.5723">HTTPS (&#1073;&#1088;&#1072;&#1091;&#1079;&#1077;&#1088;)</text></g><!--link Ext to Nginx--><g class="link" data-entity-1="ent0003" data-entity-2="ent0004" data-link-type="dependency" data-source-line="52" id="lnk14"><path d="M104.5593,191 C135.5293,183.47 170.8595,174.8787 203.1595,167.0187" fill="none" id="Ext-to-Nginx" style="stroke:#404040;stroke-width:1;"/><polygon fill="#404040" points="208.9893,165.6,199.2987,163.8414,204.1311,166.7822,201.1903,171.6146,208.9893,165.6" style="stroke:#404040;stroke-width:1;"/><text fill="#000000" font-family="'Times New Roman'" font-size="9" lengthAdjust="spacing" textLength="73.7534" x="120.1893" y="157.6523">POST /v1/webhook/</text><text fill="#000000" font-family="'Times New Roman'" font-size="9" lengthAdjust="spacing" textLength="28.6348" x="142.7487" y="168.0015">{token}</text></g><!--link Nginx to Front--><g class="link" data-entity-1="ent0004" data-entity-2="ent0006" data-link-type="dependency" data-source-line="53" id="lnk15"><path d="M314.8293,141.14 C338.2093,135.81 360.4295,130.744 386.1695,124.874" fill="none" id="Nginx-to-Front" style="stroke:#404040;stroke-width:1;"/><polygon fill="#404040" points="392.0193,123.54,382.3552,121.6412,387.1445,124.6517,384.134,129.4409,392.0193,123.54" style="stroke:#404040;stroke-width:1;"/><text fill="#000000" font-family="'Times New Roman'" font-size="9" lengthAdjust="spacing" textLength="29.0391" x="330.4093" y="128.3123">&#1089;&#1090;&#1072;&#1090;&#1080;&#1082;&#1072;</text></g><!--link Nginx to Back--><g class="link" data-entity-1="ent0004" data-entity-2="ent0007" data-link-type="dependency" data-source-line="54" id="lnk16"><path d="M314.8293,159.5 C331.8693,161.34 350.9293,163.09 368.4093,164 C447.9193,168.13 468.0093,167.6 547.5393,164 C587.4293,162.19 625.2973,159.1285 663.2873,155.4485" fill="none" id="Nginx-to-Back" style="stroke:#404040;stroke-width:1;"/><polygon fill="#404040" points="669.2593,154.87,659.9156,151.7564,664.2826,155.3521,660.6869,159.7191,669.2593,154.87" style="stroke:#404040;stroke-width:1;"/><text fill="#000000" font-family="'Times New Roman'" font-size="9" lengthAdjust="spacing" textLength="71.8242" x="434.4793" y="161.4023">/v1/* (REST + WS)</text></g><!--link Front to Back--><g class="link" data-entity-1="ent0006" data-entity-2="ent0007" data-link-type="dependency" data-source-line="55" id="lnk17"><path d="M547.8093,115.84 C584.8193,120.57 623.7079,125.5478 663.2179,130.6078" fill="none" id="Front-to-Back" style="stroke:#404040;stroke-width:1;"/><polygon fill="#404040" points="669.1693,131.37,660.7504,126.2591,664.2098,130.7348,659.7341,134.1943,669.1693,131.37" style="stroke:#404040;stroke-width:1;"/><text fill="#000000" font-family="'Times New Roman'" font-size="9" lengthAdjust="spacing" textLength="90.5977" x="563.5393" y="115.6923">REST + STOMP/SockJS</text></g><!--link Back to PG--><g class="link" data-entity-1="ent0007" data-entity-2="ent0008" data-link-type="dependency" data-source-line="56" id="lnk18"><path d="M868.5193,185.52 C898.8093,198.26 926.2686,209.804 955.3486,222.034" fill="none" id="Back-to-PG" style="stroke:#404040;stroke-width:1;"/><polygon fill="#404040" points="960.8793,224.36,954.1339,217.1837,956.2703,222.4216,951.0325,224.5581,960.8793,224.36" style="stroke:#404040;stroke-width:1;"/><text fill="#000000" font-family="'Times New Roman'" font-size="9" lengthAdjust="spacing" textLength="61.998" x="884.0793" y="192.0123">JDBC, Liquibase</text></g><!--link Back to S3--><g class="link" data-entity-1="ent0007" data-entity-2="ent0009" data-link-type="dependency" data-source-line="57" id="lnk19"><path d="M868.5193,144 C901.4093,144 931.4893,144 962.2693,144" fill="none" id="Back-to-S3" style="stroke:#404040;stroke-width:1;"/><polygon fill="#404040" points="968.2693,144,959.2693,140,963.2693,144,959.2693,148,968.2693,144" style="stroke:#404040;stroke-width:1;"/><text fill="#000000" font-family="'Times New Roman'" font-size="9" lengthAdjust="spacing" textLength="51.5039" x="889.0793" y="141.4023">AWS SDK v2</text></g><!--link Back to Proxy--><g class="link" data-entity-1="ent0007" data-entity-2="ent0010" data-link-type="dependency" data-source-line="58" id="lnk20"><path d="M868.5193,111.15 C910.7393,97.1 952.5264,83.1949 987.3164,71.6149" fill="none" id="Back-to-Proxy" style="stroke:#404040;stroke-width:1;"/><polygon fill="#404040" points="993.0093,69.72,983.2067,68.7671,988.2652,71.2991,985.7332,76.3576,993.0093,69.72" style="stroke:#404040;stroke-width:1;"/><text fill="#000000" font-family="'Times New Roman'" font-size="9" lengthAdjust="spacing" textLength="43.2378" x="893.0788" y="75.0723">Docker API</text><text fill="#000000" font-family="'Times New Roman'" font-size="9" lengthAdjust="spacing" textLength="47.2368" x="891.0793" y="85.4215">(unix socket)</text></g><!--link Proxy to Docker--><g class="link" data-entity-1="ent0010" data-entity-2="ent0011" data-link-type="dependency" data-source-line="59" id="lnk21"><path d="M1100.0193,53 C1143.4293,53 1197.9293,53 1242.2293,53" fill="none" id="Proxy-to-Docker" style="stroke:#404040;stroke-width:1;"/><polygon fill="#404040" points="1248.2293,53,1239.2293,49,1243.2293,53,1239.2293,57,1248.2293,53" style="stroke:#404040;stroke-width:1;"/><text fill="#000000" font-family="'Times New Roman'" font-size="9" lengthAdjust="spacing" textLength="72.0879" x="1160.3993" y="50.4023">&#1086;&#1075;&#1088;&#1072;&#1085;&#1080;&#1095;&#1077;&#1085;&#1085;&#1099;&#1081; API</text></g><!--link Docker to Sandbox--><g class="link" data-entity-1="ent0011" data-entity-2="ent0012" data-link-type="dependency" data-source-line="60" id="lnk22"><path d="M1366.9593,53 C1393.4593,53 1419.3093,53 1448.3593,53" fill="none" id="Docker-to-Sandbox" style="stroke:#404040;stroke-width:1;"/><polygon fill="#404040" points="1454.3593,53,1445.3593,49,1449.3593,53,1445.3593,57,1454.3593,53" style="stroke:#404040;stroke-width:1;"/><text fill="#000000" font-family="'Times New Roman'" font-size="9" lengthAdjust="spacing" textLength="56.9751" x="1382.7493" y="50.4023">docker run --rm</text></g><?plantuml-src dLJRRjj647tdLmpK5waH9KkAd5X52yWN9N4SMmrL-8M0iHBN4YDgbrcIbjmWG1mNI84KA53qlUWVE6dSkewT_CBoZpgpP6tMpLCaG9SvP-vp64rz4JB5PZ1ae-bOoKHuQpAG2hxecPSLNJ5oK0cku6x17asO9-U-6CC-2o9UG3o-pv8WxaaHRxCPXzB0d_48jlaS7iiP4wLFSnt_UmwDHW7iAYNdULstb-Xz4xpoMoaWGdeyuY6qsiKsc9WQuv9LjF9HpCGuuF3C0dojIkLnbQTiRhJNxdOp-yqnhQzjhFJQ1gCQSckZIs_hUR515hCXYputGJ7KA929zwauosjtsdVMFnsdr-YrRiHXenYHpwt72lX-3B44vOydCNW-pT2NmhAok2Nzc_wWtwS_wR_m-wq-IL_gK_fV0XR1Tn5NLjP8IV-YB_Lf-YD-dkbJLypvq4wFz5bwP5mkqjV6PMCHMzRreahROryiN37OSggulmEkSBYXaej3L-m7oIBq0ndNL69y3TUoGko6ZT5N_uu9Ns1Lz7c9jVqCcFio_G7_db3Uz4LwhC_n-vWiK5wNeoaU_fgSXJBYbL8-ja8vFONxvy9pHLUCau0fQApKcd0B1eSXTqRA3sDervPTuVIxG3d1z4TZEKjVOI57-Xm7TG7wZJv1_9r-hqzDyIQoTJCVRSQaUoZZm1VGDCcSK94KLwMCeLLhrrfGtbn_2CtR5LSytd06K3zeL66N3nrgAAQ_zNda2lqh3kDC_uaLd0EDNd-axT5YQ2qudxbKq_r0pbrHrXU8lSC1qNOlqzVwRp2cI-Dobhwiedu18vnWIwVO8Ex_AypnaLp8_i7OgDsti9l7tLZmKKA7ypKqbYkcSMenw_jAFQM-ZEAnuiwtMqXpnOp7ZC0gZ1KB9tlHb0SybWBAJo8fXjZrltNlgKHKpJE1VhaYnhiTuz5KOHZ8uPulFBumMVltRkPyv8i7EwwGmoSuVeYmI3mYLupCmcERUPxYKSGzA3ltktQplOnfXmdDjmEiqM0sPOXCSAVrlqLwvhJio2p4DXUSrK6_I6W5Rdw67kCpwd62myX6bG55giE4DvGBe2gPZqzjt79u64-awBHgZOOT1VuCwcOWdUQIpO8GIQwmRS5ZcXaYWeDjAyuyMuhWaB0PvbM7W2tE41g5IGGDiezOQ7jAXj3TsihwpB9R5WaTgTza4eGEt1yC-WwKzHiZjMDyEg06AnQg-p-q_avsh7Ly6aoadDPTyIoMUF7FhOn2PACC95yh2O_gf42W2qASudm9PIE0Mx3hLApCiq39CMUmywXV9t5iEfQ1YDE_XupDzTMrAcpvJnEVpk8QTLg8TdSTS51f1ys26sqGiNnhtVu354yY_0LaowvO6OEuEQS3A8e_Q3H6Tg-C_3A9eRkLiqpMVByTo0u8yAffNJFh7m00?></g></svg>