<svg xmlns="http://www.w3.org/2000/svg" xmlns:xlink="http://www.w3.org/1999/xlink" contentStyleType="text/css" data-diagram-type="SEQUENCE" height="1190px" preserveAspectRatio="none" style="width:1249px;height:1190px;background:#FFFFFF;" version="1.1" viewBox="0 0 1249 1190" width="1249px" zoomAndPan="magnify"><?plantuml 1.2026.3?><defs/><g><g class="title" data-source-line="19"><text fill="#000000" font-family="'Times New Roman'" font-size="14" font-weight="700" lengthAdjust="spacing" textLength="245.041" x="498.8782" y="28.0703">&#1040;&#1083;&#1075;&#1086;&#1088;&#1080;&#1090;&#1084; &#1080;&#1089;&#1087;&#1086;&#1083;&#1085;&#1077;&#1085;&#1080;&#1103; workflow-&#1075;&#1088;&#1072;&#1092;&#1072;</text></g><g><title>WorkflowExecutionService</title><rect fill="#FFFFFF" height="841.0103" style="stroke:#181818;stroke-width:1;" width="10" x="357.9956" y="248.6411"/></g><g><title>WorkflowExecutor</title><rect fill="#FFFFFF" height="347.7339" style="stroke:#181818;stroke-width:1;" width="10" x="565.6812" y="542.0771"/></g><rect fill="none" height="727.4146" rx="3" ry="3" style="stroke:#000000;stroke-width:1.5;" width="959.196" x="274.6013" y="355.2368"/><rect fill="none" height="407.6807" rx="3" ry="3" style="stroke:#000000;stroke-width:1.5;" width="939.196" x="284.6013" y="508.7793"/><rect fill="none" height="219.1382" rx="3" ry="3" style="stroke:#000000;stroke-width:1.5;" width="534.0254" x="511.2253" y="663.6729"/><g class="participant-lifeline" data-entity-uid="part1" data-qualified-name="Trigger" data-source-line="21" id="part1-lifeline"><g><title>.......</title><rect fill="#000000" fill-opacity="0.00000" height="972.2549" width="8" x="62.3435" y="127.3965"/><line style="stroke:#6C757D;stroke-width:0.5;stroke-dasharray:5,5;" x1="66" x2="66" y1="127.3965" y2="1099.6514"/></g></g><g class="participant-lifeline" data-entity-uid="part2" data-qualified-name="Enqueue" data-source-line="22" id="part2-lifeline"><g><title>RunEnqueueService</title><rect fill="#000000" fill-opacity="0.00000" height="972.2549" width="8" x="228.699" y="127.3965"/><line style="stroke:#6C757D;stroke-width:0.5;stroke-dasharray:5,5;" x1="231.7966" x2="231.7966" y1="127.3965" y2="1099.6514"/></g></g><g class="participant-lifeline" data-entity-uid="part3" data-qualified-name="Exec" data-source-line="23" id="part3-lifeline"><g><title>WorkflowExecutionService</title><rect fill="#000000" fill-opacity="0.00000" height="972.2549" width="8" x="358.9956" y="127.3965"/><line style="stroke:#6C757D;stroke-width:0.5;stroke-dasharray:5,5;" x1="362.6013" x2="362.6013" y1="127.3965" y2="1099.6514"/></g></g><g class="participant-lifeline" data-entity-uid="part4" data-qualified-name="Pool" data-source-line="24" id="part4-lifeline"><g><title>WorkflowExecutor</title><rect fill="#000000" fill-opacity="0.00000" height="972.2549" width="8" x="566.6812" y="127.3965"/><line style="stroke:#6C757D;stroke-width:0.5;stroke-dasharray:5,5;" x1="570.2253" x2="570.2253" y1="127.3965" y2="1099.6514"/></g></g><g class="participant-lifeline" data-entity-uid="part5" data-qualified-name="DB" data-source-line="25" id="part5-lifeline"><g><title>PostgreSQL</title><rect fill="#000000" fill-opacity="0.00000" height="972.2549" width="8" x="699.0425" y="127.3965"/><line style="stroke:#6C757D;stroke-width:0.5;stroke-dasharray:5,5;" x1="702.1521" x2="702.1521" y1="127.3965" y2="1099.6514"/></g></g><g class="participant-lifeline" data-entity-uid="part6" data-qualified-name="S3" data-source-line="26" id="part6-lifeline"><g><title>MinIO</title><rect fill="#000000" fill-opacity="0.00000" height="972.2549" width="8" x="756.9329" y="127.3965"/><line style="stroke:#6C757D;stroke-width:0.5;stroke-dasharray:5,5;" x1="760.9329" x2="760.9329" y1="127.3965" y2="1099.6514"/></g></g><g class="participant-lifeline" data-entity-uid="part7" data-qualified-name="Reg" data-source-line="27" id="part7-lifeline"><g><title>NodeExecutorRegistry</title><rect fill="#000000" fill-opacity="0.00000" height="972.2549" width="8" x="842.3352" y="127.3965"/><line style="stroke:#6C757D;stroke-width:0.5;stroke-dasharray:5,5;" x1="845.9329" x2="845.9329" y1="127.3965" y2="1099.6514"/></g></g><g class="participant-lifeline" data-entity-uid="part8" data-qualified-name="WS" data-source-line="28" id="part8-lifeline"><g><title>GraphBroadcastListener</title><rect fill="#000000" fill-opacity="0.00000" height="972.2549" width="8" x="970.4941" y="127.3965"/><line style="stroke:#6C757D;stroke-width:0.5;stroke-dasharray:5,5;" x1="973.7375" x2="973.7375" y1="127.3965" y2="1099.6514"/></g></g><g class="participant-lifeline" data-entity-uid="part9" data-qualified-name="Client" data-source-line="29" id="part9-lifeline"><g><title>......</title><rect fill="#000000" fill-opacity="0.00000" height="972.2549" width="8" x="1159.3545" y="127.3965"/><line style="stroke:#6C757D;stroke-width:0.5;stroke-dasharray:5,5;" x1="1162.9116" x2="1162.9116" y1="127.3965" y2="1099.6514"/></g></g><g class="participant participant-head" data-entity-uid="part1" data-qualified-name="Trigger" data-source-line="21" id="part1-head"><text fill="#000000" font-family="'Times New Roman'" font-size="11" lengthAdjust="spacing" textLength="37.5117" x="44.5876" y="112.3682">&#1058;&#1088;&#1080;&#1075;&#1075;&#1077;&#1088;</text><text fill="#000000" font-family="'Times New Roman'" font-size="11" lengthAdjust="spacing" textLength="116.687" x="5" y="125.0171">(manual / cron / webhook)</text><ellipse cx="66.3435" cy="50.5986" fill="#DCE9F5" rx="8" ry="8" style="stroke:#2E5C8A;stroke-width:0.5;"/><path d="M66.3435,58.5986 L66.3435,85.5986 M53.3435,66.5986 L79.3435,66.5986 M66.3435,85.5986 L53.3435,100.5986 M66.3435,85.5986 L79.3435,100.5986" fill="none" style="stroke:#2E5C8A;stroke-width:0.5;"/></g><g class="participant participant-tail" data-entity-uid="part1" data-qualified-name="Trigger" data-source-line="21" id="part1-tail"><text fill="#000000" font-family="'Times New Roman'" font-size="11" lengthAdjust="spacing" textLength="37.5117" x="44.5876" y="1108.9209">&#1058;&#1088;&#1080;&#1075;&#1075;&#1077;&#1088;</text><text fill="#000000" font-family="'Times New Roman'" font-size="11" lengthAdjust="spacing" textLength="116.687" x="5" y="1121.5698">(manual / cron / webhook)</text><ellipse cx="66.3435" cy="1132.4492" fill="#DCE9F5" rx="8" ry="8" style="stroke:#2E5C8A;stroke-width:0.5;"/><path d="M66.3435,1140.4492 L66.3435,1167.4492 M53.3435,1148.4492 L79.3435,1148.4492 M66.3435,1167.4492 L53.3435,1182.4492 M66.3435,1167.4492 L79.3435,1182.4492" fill="none" style="stroke:#2E5C8A;stroke-width:0.5;"/></g><g class="participant participant-head" data-entity-uid="part2" data-qualified-name="Enqueue" data-source-line="22" id="part2-head"><rect fill="#DCE9F5" height="26.6489" rx="3" ry="3" style="stroke:#2E5C8A;stroke-width:0.5;" width="103.8047" x="180.7966" y="99.7476"/><text fill="#1A1A1A" font-family="'Times New Roman'" font-size="11" lengthAdjust="spacing" textLength="89.8047" x="187.7966" y="117.0171">RunEnqueueService</text></g><g class="participant participant-tail" data-entity-uid="part2" data-qualified-name="Enqueue" data-source-line="22" id="part2-tail"><rect fill="#DCE9F5" height="26.6489" rx="3" ry="3" style="stroke:#2E5C8A;stroke-width:0.5;" width="103.8047" x="180.7966" y="1098.6514"/><text fill="#1A1A1A" font-family="'Times New Roman'" font-size="11" lengthAdjust="spacing" textLength="89.8047" x="187.7966" y="1115.9209">RunEnqueueService</text></g><g class="participant participant-head" data-entity-uid="part3" data-qualified-name="Exec" data-source-line="23" id="part3-head"><rect fill="#DCE9F5" height="26.6489" rx="3" ry="3" style="stroke:#2E5C8A;stroke-width:0.5;" width="136.7886" x="294.6013" y="99.7476"/><text fill="#1A1A1A" font-family="'Times New Roman'" font-size="11" lengthAdjust="spacing" textLength="122.7886" x="301.6013" y="117.0171">WorkflowExecutionService</text></g><g class="participant participant-tail" data-entity-uid="part3" data-qualified-name="Exec" data-source-line="23" id="part3-tail"><rect fill="#DCE9F5" height="26.6489" rx="3" ry="3" style="stroke:#2E5C8A;stroke-width:0.5;" width="136.7886" x="294.6013" y="1098.6514"/><text fill="#1A1A1A" font-family="'Times New Roman'" font-size="11" lengthAdjust="spacing" textLength="122.7886" x="301.6013" y="1115.9209">WorkflowExecutionService</text></g><g class="participant participant-head" data-entity-uid="part4" data-qualified-name="Pool" data-source-line="24" id="part4-head"><rect fill="#DCE9F5" height="39.2979" rx="3" ry="3" style="stroke:#2E5C8A;stroke-width:0.5;" width="98.9116" x="521.2253" y="87.0986"/><text fill="#1A1A1A" font-family="'Times New Roman'" font-size="11" lengthAdjust="spacing" textLength="84.9116" x="528.2253" y="104.3682">WorkflowExecutor</text><text fill="#1A1A1A" font-family="'Times New Roman'" font-size="11" lengthAdjust="spacing" textLength="72.397" x="534.4827" y="117.0171">ThreadPool (16)</text></g><g class="participant participant-tail" data-entity-uid="part4" data-qualified-name="Pool" data-source-line="24" id="part4-tail"><rect fill="#DCE9F5" height="39.2979" rx="3" ry="3" style="stroke:#2E5C8A;stroke-width:0.5;" width="98.9116" x="521.2253" y="1098.6514"/><text fill="#1A1A1A" font-family="'Times New Roman'" font-size="11" lengthAdjust="spacing" textLength="84.9116" x="528.2253" y="1115.9209">WorkflowExecutor</text><text fill="#1A1A1A" font-family="'Times New Roman'" font-size="11" lengthAdjust="spacing" textLength="72.397" x="534.4827" y="1128.5698">ThreadPool (16)</text></g><g class="participant participant-head" data-entity-uid="part5" data-qualified-name="DB" data-source-line="25" id="part5-head"><text fill="#000000" font-family="'Times New Roman'" font-size="11" lengthAdjust="spacing" textLength="53.7808" x="673.1521" y="125.0171">PostgreSQL</text><path d="M685.0425,78.7476 C685.0425,68.7476 703.0425,68.7476 703.0425,68.7476 C703.0425,68.7476 721.0425,68.7476 721.0425,78.7476 L721.0425,104.7476 C721.0425,114.7476 703.0425,114.7476 703.0425,114.7476 C703.0425,114.7476 685.0425,114.7476 685.0425,104.7476 L685.0425,78.7476" fill="#E2E2F0" style="stroke:#181818;stroke-width:0.5;"/><path d="M685.0425,78.7476 C685.0425,88.7476 703.0425,88.7476 703.0425,88.7476 C703.0425,88.7476 721.0425,88.7476 721.0425,78.7476" fill="none" style="stroke:#181818;stroke-width:0.5;"/></g><g class="participant participant-tail" data-entity-uid="part5" data-qualified-name="DB" data-source-line="25" id="part5-tail"><text fill="#000000" font-family="'Times New Roman'" font-size="11" lengthAdjust="spacing" textLength="53.7808" x="673.1521" y="1108.9209">PostgreSQL</text><path d="M685.0425,1121.3003 C685.0425,1111.3003 703.0425,1111.3003 703.0425,1111.3003 C703.0425,1111.3003 721.0425,1111.3003 721.0425,1121.3003 L721.0425,1147.3003 C721.0425,1157.3003 703.0425,1157.3003 703.0425,1157.3003 C703.0425,1157.3003 685.0425,1157.3003 685.0425,1147.3003 L685.0425,1121.3003" fill="#E2E2F0" style="stroke:#181818;stroke-width:0.5;"/><path d="M685.0425,1121.3003 C685.0425,1131.3003 703.0425,1131.3003 703.0425,1131.3003 C703.0425,1131.3003 721.0425,1131.3003 721.0425,1121.3003" fill="none" style="stroke:#181818;stroke-width:0.5;"/></g><g class="participant participant-head" data-entity-uid="part6" data-qualified-name="S3" data-source-line="26" id="part6-head"><text fill="#000000" font-family="'Times New Roman'" font-size="11" lengthAdjust="spacing" textLength="29.9438" x="742.9609" y="125.0171">MinIO</text><path d="M742.9329,78.7476 C742.9329,68.7476 760.9329,68.7476 760.9329,68.7476 C760.9329,68.7476 778.9329,68.7476 778.9329,78.7476 L778.9329,104.7476 C778.9329,114.7476 760.9329,114.7476 760.9329,114.7476 C760.9329,114.7476 742.9329,114.7476 742.9329,104.7476 L742.9329,78.7476" fill="#E2E2F0" style="stroke:#181818;stroke-width:0.5;"/><path d="M742.9329,78.7476 C742.9329,88.7476 760.9329,88.7476 760.9329,88.7476 C760.9329,88.7476 778.9329,88.7476 778.9329,78.7476" fill="none" style="stroke:#181818;stroke-width:0.5;"/></g><g class="participant participant-tail" data-entity-uid="part6" data-qualified-name="S3" data-source-line="26" id="part6-tail"><text fill="#000000" font-family="'Times New Roman'" font-size="11" lengthAdjust="spacing" textLength="29.9438" x="742.9609" y="1108.9209">MinIO</text><path d="M742.9329,1121.3003 C742.9329,1111.3003 760.9329,1111.3003 760.9329,1111.3003 C760.9329,1111.3003 778.9329,1111.3003 778.9329,1121.3003 L778.9329,1147.3003 C778.9329,1157.3003 760.9329,1157.3003 760.9329,1157.3003 C760.9329,1157.3003 742.9329,1157.3003 742.9329,1147.3003 L742.9329,1121.3003" fill="#E2E2F0" style="stroke:#181818;stroke-width:0.5;"/><path d="M742.9329,1121.3003 C742.9329,1131.3003 760.9329,1131.3003 760.9329,1131.3003 C760.9329,1131.3003 778.9329,1131.3003 778.9329,1121.3003" fill="none" style="stroke:#181818;stroke-width:0.5;"/></g><g class="participant participant-head" data-entity-uid="part7" data-qualified-name="Reg" data-source-line="27" id="part7-head"><rect fill="#DCE9F5" height="26.6489" rx="3" ry="3" style="stroke:#2E5C8A;stroke-width:0.5;" width="114.8047" x="788.9329" y="99.7476"/><text fill="#1A1A1A" font-family="'Times New Roman'" font-size="11" lengthAdjust="spacing" textLength="100.8047" x="795.9329" y="117.0171">NodeExecutorRegistry</text></g><g class="participant participant-tail" data-entity-uid="part7" data-qualified-name="Reg" data-source-line="27" id="part7-tail"><rect fill="#DCE9F5" height="26.6489" rx="3" ry="3" style="stroke:#2E5C8A;stroke-width:0.5;" width="114.8047" x="788.9329" y="1098.6514"/><text fill="#1A1A1A" font-family="'Times New Roman'" font-size="11" lengthAdjust="spacing" textLength="100.8047" x="795.9329" y="1115.9209">NodeExecutorRegistry</text></g><g class="participant participant-head" data-entity-uid="part8" data-qualified-name="WS" data-source-line="28" id="part8-head"><rect fill="#DCE9F5" height="26.6489" rx="3" ry="3" style="stroke:#2E5C8A;stroke-width:0.5;" width="121.5132" x="913.7375" y="99.7476"/><text fill="#1A1A1A" font-family="'Times New Roman'" font-size="11" lengthAdjust="spacing" textLength="107.5132" x="920.7375" y="117.0171">GraphBroadcastListener</text></g><g class="participant participant-tail" data-entity-uid="part8" data-qualified-name="WS" data-source-line="28" id="part8-tail"><rect fill="#DCE9F5" height="26.6489" rx="3" ry="3" style="stroke:#2E5C8A;stroke-width:0.5;" width="121.5132" x="913.7375" y="1098.6514"/><text fill="#1A1A1A" font-family="'Times New Roman'" font-size="11" lengthAdjust="spacing" textLength="107.5132" x="920.7375" y="1115.9209">GraphBroadcastListener</text></g><g class="participant participant-head" data-entity-uid="part9" data-qualified-name="Client" data-source-line="29" id="part9-head"><text fill="#000000" font-family="'Times New Roman'" font-size="11" lengthAdjust="spacing" textLength="34.2891" x="1143.21" y="112.3682">&#1050;&#1083;&#1080;&#1077;&#1085;&#1090;</text><text fill="#000000" font-family="'Times New Roman'" font-size="11" lengthAdjust="spacing" textLength="94.8857" x="1112.9116" y="125.0171">(&#1087;&#1086;&#1076;&#1087;&#1080;&#1089;&#1082;&#1072; &#1085;&#1072; &#1090;&#1086;&#1087;&#1080;&#1082;)</text><ellipse cx="1163.3545" cy="50.5986" fill="#DCE9F5" rx="8" ry="8" style="stroke:#2E5C8A;stroke-width:0.5;"/><path d="M1163.3545,58.5986 L1163.3545,85.5986 M1150.3545,66.5986 L1176.3545,66.5986 M1163.3545,85.5986 L1150.3545,100.5986 M1163.3545,85.5986 L1176.3545,100.5986" fill="none" style="stroke:#2E5C8A;stroke-width:0.5;"/></g><g class="participant participant-tail" data-entity-uid="part9" data-qualified-name="Client" data-source-line="29" id="part9-tail"><text fill="#000000" font-family="'Times New Roman'" font-size="11" lengthAdjust="spacing" textLength="34.2891" x="1143.21" y="1108.9209">&#1050;&#1083;&#1080;&#1077;&#1085;&#1090;</text><text fill="#000000" font-family="'Times New Roman'" font-size="11" lengthAdjust="spacing" textLength="94.8857" x="1112.9116" y="1121.5698">(&#1087;&#1086;&#1076;&#1087;&#1080;&#1089;&#1082;&#1072; &#1085;&#1072; &#1090;&#1086;&#1087;&#1080;&#1082;)</text><ellipse cx="1163.3545" cy="1132.4492" fill="#DCE9F5" rx="8" ry="8" style="stroke:#2E5C8A;stroke-width:0.5;"/><path d="M1163.3545,1140.4492 L1163.3545,1167.4492 M1150.3545,1148.4492 L1176.3545,1148.4492 M1163.3545,1167.4492 L1150.3545,1182.4492 M1163.3545,1167.4492 L1176.3545,1182.4492" fill="none" style="stroke:#2E5C8A;stroke-width:0.5;"/></g><g><title>WorkflowExecutionService</title><rect fill="#FFFFFF" height="841.0103" style="stroke:#181818;stroke-width:1;" width="10" x="357.9956" y="248.6411"/></g><g><title>WorkflowExecutor</title><rect fill="#FFFFFF" height="347.7339" style="stroke:#181818;stroke-width:1;" width="10" x="565.6812" y="542.0771"/></g><g class="message" data-entity-1="part1" data-entity-2="part2" data-source-line="31" id="msg1"><polygon fill="#404040" points="220.699,152.0454,230.699,156.0454,220.699,160.0454,224.699,156.0454" style="stroke:#404040;stroke-width:1;"/><line style="stroke:#404040;stroke-width:1;" x1="66.3435" x2="226.699" y1="156.0454" y2="156.0454"/><text fill="#000000" font-family="'Times New Roman'" font-size="11" lengthAdjust="spacing" textLength="142.3555" x="78.3435" y="151.666">enqueueRun(workflowId, input)</text></g><g class="message" data-entity-1="part2" data-entity-2="part5" data-source-line="32" id="msg2"><polygon fill="#404040" points="691.0425,191.3433,701.0425,195.3433,691.0425,199.3433,695.0425,195.3433" style="stroke:#404040;stroke-width:1;"/><line style="stroke:#404040;stroke-width:1;" x1="232.699" x2="697.0425" y1="195.3433" y2="195.3433"/><text fill="#000000" font-family="'Times New Roman'" font-size="11" lengthAdjust="spacing" textLength="104.1831" x="415.7792" y="178.3149">INSERT workflow_run</text><text fill="#000000" font-family="'Times New Roman'" font-size="11" lengthAdjust="spacing" textLength="79.5244" x="428.1085" y="190.9639">(status = pending)</text></g><g class="message" data-entity-1="part2" data-entity-2="part1" data-source-line="33" id="msg3"><polygon fill="#404040" points="77.3435,217.9922,67.3435,221.9922,77.3435,225.9922,73.3435,221.9922" style="stroke:#404040;stroke-width:1;"/><line style="stroke:#404040;stroke-width:1;stroke-dasharray:2,2;" x1="71.3435" x2="231.699" y1="221.9922" y2="221.9922"/><text fill="#000000" font-family="'Times New Roman'" font-size="11" lengthAdjust="spacing" textLength="23.8262" x="137.6082" y="217.6128">runId</text></g><g class="message" data-entity-1="part2" data-entity-2="part3" data-source-line="35" id="msg4"><polygon fill="#404040" points="345.9956,244.6411,355.9956,248.6411,345.9956,252.6411,349.9956,248.6411" style="stroke:#404040;stroke-width:1;"/><line style="stroke:#404040;stroke-width:1;" x1="232.699" x2="351.9956" y1="248.6411" y2="248.6411"/><text fill="#000000" font-family="'Times New Roman'" font-size="11" lengthAdjust="spacing" textLength="87.9785" x="251.358" y="244.2617">RunEnqueuedEvent</text></g><g class="message" data-entity-1="part3" data-entity-2="part5" data-source-line="37" id="msg5"><polygon fill="#404040" points="691.0425,283.939,701.0425,287.939,691.0425,291.939,695.0425,287.939" style="stroke:#404040;stroke-width:1;"/><line style="stroke:#404040;stroke-width:1;" x1="367.9956" x2="697.0425" y1="287.939" y2="287.939"/><text fill="#000000" font-family="'Times New Roman'" font-size="11" lengthAdjust="spacing" textLength="110.2847" x="480.3767" y="270.9106">SELECT graph_skeleton</text><text fill="#000000" font-family="'Times New Roman'" font-size="11" lengthAdjust="spacing" textLength="117.6377" x="476.7002" y="283.5596">FROM workflow_revision</text></g><g class="message" data-entity-1="part3" data-entity-2="part3" data-source-line="39" id="msg6"><line style="stroke:#404040;stroke-width:1;" x1="367.9956" x2="409.9956" y1="327.2368" y2="327.2368"/><line style="stroke:#404040;stroke-width:1;" x1="409.9956" x2="409.9956" y1="327.2368" y2="340.2368"/><line style="stroke:#404040;stroke-width:1;" x1="368.9956" x2="409.9956" y1="340.2368" y2="340.2368"/><polygon fill="#404040" points="378.9956,336.2368,368.9956,340.2368,378.9956,344.2368,374.9956,340.2368" style="stroke:#404040;stroke-width:1;"/><text fill="#000000" font-family="'Times New Roman'" font-size="11" lengthAdjust="spacing" textLength="167.3901" x="374.9956" y="310.2085">topologicalOrder(inDegree, outgoing)</text><text fill="#000000" font-family="'Times New Roman'" font-size="11" lengthAdjust="spacing" textLength="83.0264" x="417.1775" y="322.8574">&#8212; &#1072;&#1083;&#1075;&#1086;&#1088;&#1080;&#1090;&#1084; &#1050;&#1072;&#1085;&#1072;</text></g><path d="M277.6013,355.2368 L331.8206,355.2368 L331.8206,359.8857 L321.8206,369.8857 L274.6013,369.8857 L274.6013,358.2368 A3,3 0 0 1 277.6013,355.2368" fill="#EEEEEE" style="stroke:#000000;stroke-width:1.5;"/><rect fill="none" height="727.4146" rx="3" ry="3" style="stroke:#000000;stroke-width:1.5;" width="959.196" x="274.6013" y="355.2368"/><text fill="#000000" font-family="'Times New Roman'" font-size="11" font-weight="700" lengthAdjust="spacing" textLength="12.2192" x="289.6013" y="366.5063">alt</text><text fill="#000000" font-family="'Times New Roman'" font-size="11" font-weight="700" lengthAdjust="spacing" textLength="88.7466" x="346.8206" y="367.5063">[&#1075;&#1088;&#1072;&#1092; &#1072;&#1094;&#1080;&#1082;&#1083;&#1080;&#1095;&#1077;&#1085;]</text><g class="message" data-entity-1="part3" data-entity-2="part5" data-source-line="42" id="msg7"><polygon fill="#404040" points="691.0425,397.1836,701.0425,401.1836,691.0425,405.1836,695.0425,401.1836" style="stroke:#404040;stroke-width:1;"/><line style="stroke:#404040;stroke-width:1;" x1="367.9956" x2="697.0425" y1="401.1836" y2="401.1836"/><text fill="#000000" font-family="'Times New Roman'" font-size="11" lengthAdjust="spacing" textLength="102.4429" x="484.2976" y="384.1553">INSERT node_run &#215; N</text><text fill="#000000" font-family="'Times New Roman'" font-size="11" lengthAdjust="spacing" textLength="75.8506" x="497.5938" y="396.8042">(status = queued)</text></g><g class="message" data-entity-1="part3" data-entity-2="part5" data-source-line="43" id="msg8"><polygon fill="#404040" points="691.0425,436.4814,701.0425,440.4814,691.0425,444.4814,695.0425,440.4814" style="stroke:#404040;stroke-width:1;"/><line style="stroke:#404040;stroke-width:1;" x1="367.9956" x2="697.0425" y1="440.4814" y2="440.4814"/><text fill="#000000" font-family="'Times New Roman'" font-size="11" lengthAdjust="spacing" textLength="109.0708" x="480.9836" y="423.4531">UPDATE workflow_run</text><text fill="#000000" font-family="'Times New Roman'" font-size="11" lengthAdjust="spacing" textLength="93.2852" x="488.8765" y="436.1021">SET status = running</text></g><g class="message" data-entity-1="part3" data-entity-2="part8" data-source-line="44" id="msg9"><polygon fill="#404040" points="962.4941,463.1304,972.4941,467.1304,962.4941,471.1304,966.4941,467.1304" style="stroke:#404040;stroke-width:1;"/><line style="stroke:#404040;stroke-width:1;" x1="367.9956" x2="968.4941" y1="467.1304" y2="467.1304"/><text fill="#000000" font-family="'Times New Roman'" font-size="11" lengthAdjust="spacing" textLength="77.5908" x="632.4495" y="462.751">workflow_started</text></g><g class="message" data-entity-1="part8" data-entity-2="part9" data-source-line="45" id="msg10"><polygon fill="#404040" points="1151.3545,489.7793,1161.3545,493.7793,1151.3545,497.7793,1155.3545,493.7793" style="stroke:#404040;stroke-width:1;"/><line style="stroke:#404040;stroke-width:1;stroke-dasharray:2,2;" x1="974.4941" x2="1157.3545" y1="493.7793" y2="493.7793"/><text fill="#000000" font-family="'Times New Roman'" font-size="11" lengthAdjust="spacing" textLength="164.8604" x="986.4941" y="489.3999">STOMP /topic/workflows/{id}/graph</text></g><path d="M287.6013,508.7793 L349.7751,508.7793 L349.7751,513.4282 L339.7751,523.4282 L284.6013,523.4282 L284.6013,511.7793 A3,3 0 0 1 287.6013,508.7793" fill="#EEEEEE" style="stroke:#000000;stroke-width:1.5;"/><rect fill="none" height="407.6807" rx="3" ry="3" style="stroke:#000000;stroke-width:1.5;" width="939.196" x="284.6013" y="508.7793"/><text fill="#000000" font-family="'Times New Roman'" font-size="11" font-weight="700" lengthAdjust="spacing" textLength="20.1738" x="299.6013" y="520.0488">loop</text><text fill="#000000" font-family="'Times New Roman'" font-size="11" font-weight="700" lengthAdjust="spacing" textLength="152.5176" x="364.7751" y="521.0488">[&#1087;&#1086; &#1090;&#1086;&#1087;&#1086;&#1083;&#1086;&#1075;&#1080;&#1095;&#1077;&#1089;&#1082;&#1086;&#1084;&#1091; &#1087;&#1086;&#1088;&#1103;&#1076;&#1082;&#1091;]</text><g class="message" data-entity-1="part3" data-entity-2="part4" data-source-line="48" id="msg11"><polygon fill="#404040" points="553.6812,538.0771,563.6812,542.0771,553.6812,546.0771,557.6812,542.0771" style="stroke:#404040;stroke-width:1;"/><line style="stroke:#404040;stroke-width:1;" x1="367.9956" x2="559.6812" y1="542.0771" y2="542.0771"/><text fill="#000000" font-family="'Times New Roman'" font-size="11" lengthAdjust="spacing" textLength="178.6855" x="377.4956" y="537.6978">allOf(deps).thenApplyAsync(execNode)</text></g><g class="message" data-entity-1="part4" data-entity-2="part6" data-source-line="50" id="msg12"><polygon fill="#404040" points="748.9329,564.7261,758.9329,568.7261,748.9329,572.7261,752.9329,568.7261" style="stroke:#404040;stroke-width:1;"/><line style="stroke:#404040;stroke-width:1;" x1="575.6812" x2="754.9329" y1="568.7261" y2="568.7261"/><text fill="#000000" font-family="'Times New Roman'" font-size="11" lengthAdjust="spacing" textLength="111.1816" x="612.7162" y="564.3467">getJsonTree(configHash)</text></g><g class="message" data-entity-1="part6" data-entity-2="part4" data-source-line="51" id="msg13"><polygon fill="#404040" points="586.6812,591.375,576.6812,595.375,586.6812,599.375,582.6812,595.375" style="stroke:#404040;stroke-width:1;"/><line style="stroke:#404040;stroke-width:1;stroke-dasharray:2,2;" x1="580.6812" x2="759.9329" y1="595.375" y2="595.375"/><text fill="#000000" font-family="'Times New Roman'" font-size="11" lengthAdjust="spacing" textLength="88.5962" x="624.0089" y="590.9956">node config (JSON)</text></g><g class="message" data-entity-1="part4" data-entity-2="part7" data-source-line="52" id="msg14"><polygon fill="#404040" points="834.3352,618.0239,844.3352,622.0239,834.3352,626.0239,838.3352,622.0239" style="stroke:#404040;stroke-width:1;"/><line style="stroke:#404040;stroke-width:1;" x1="575.6812" x2="840.3352" y1="622.0239" y2="622.0239"/><text fill="#000000" font-family="'Times New Roman'" font-size="11" lengthAdjust="spacing" textLength="97.1255" x="662.4454" y="617.6445">execute(input, config)</text></g><g class="message" data-entity-1="part7" data-entity-2="part4" data-source-line="53" id="msg15"><polygon fill="#404040" points="586.6812,644.6729,576.6812,648.6729,586.6812,652.6729,582.6812,648.6729" style="stroke:#404040;stroke-width:1;"/><line style="stroke:#404040;stroke-width:1;stroke-dasharray:2,2;" x1="580.6812" x2="845.3352" y1="648.6729" y2="648.6729"/><text fill="#000000" font-family="'Times New Roman'" font-size="11" lengthAdjust="spacing" textLength="70.2754" x="675.8705" y="644.2935">NodeRunResult</text></g><path d="M514.2253,663.6729 L568.4446,663.6729 L568.4446,668.3218 L558.4446,678.3218 L511.2253,678.3218 L511.2253,666.6729 A3,3 0 0 1 514.2253,663.6729" fill="#EEEEEE" style="stroke:#000000;stroke-width:1.5;"/><rect fill="none" height="219.1382" rx="3" ry="3" style="stroke:#000000;stroke-width:1.5;" width="534.0254" x="511.2253" y="663.6729"/><text fill="#000000" font-family="'Times New Roman'" font-size="11" font-weight="700" lengthAdjust="spacing" textLength="12.2192" x="526.2253" y="674.9424">alt</text><text fill="#000000" font-family="'Times New Roman'" font-size="11" font-weight="700" lengthAdjust="spacing" textLength="40.9331" x="583.4446" y="675.9424">[success]</text><g class="message" data-entity-1="part4" data-entity-2="part5" data-source-line="56" id="msg16"><polygon fill="#404040" points="691.0425,705.6196,701.0425,709.6196,691.0425,713.6196,695.0425,709.6196" style="stroke:#404040;stroke-width:1;"/><line style="stroke:#404040;stroke-width:1;" x1="575.6812" x2="697.0425" y1="709.6196" y2="709.6196"/><text fill="#000000" font-family="'Times New Roman'" font-size="11" lengthAdjust="spacing" textLength="87.6831" x="595.5203" y="692.5913">UPDATE node_run</text><text fill="#000000" font-family="'Times New Roman'" font-size="11" lengthAdjust="spacing" textLength="103.3613" x="587.6812" y="705.2402">status = success, output</text></g><g class="message" data-entity-1="part4" data-entity-2="part8" data-source-line="57" id="msg17"><polygon fill="#404040" points="962.4941,732.2686,972.4941,736.2686,962.4941,740.2686,966.4941,736.2686" style="stroke:#404040;stroke-width:1;"/><line style="stroke:#404040;stroke-width:1;" x1="575.6812" x2="968.4941" y1="736.2686" y2="736.2686"/><text fill="#000000" font-family="'Times New Roman'" font-size="11" lengthAdjust="spacing" textLength="94.0747" x="728.0503" y="731.8892">node_exited(success)</text></g><line style="stroke:#000000;stroke-width:1;stroke-dasharray:2,2;" x1="511.2253" x2="1045.2507" y1="745.2686" y2="745.2686"/><text fill="#000000" font-family="'Times New Roman'" font-size="11" font-weight="700" lengthAdjust="spacing" textLength="38.4839" x="516.2253" y="755.5381">[failure]</text><g class="message" data-entity-1="part4" data-entity-2="part5" data-source-line="59" id="msg18"><polygon fill="#404040" points="691.0425,786.2153,701.0425,790.2153,691.0425,794.2153,695.0425,790.2153" style="stroke:#404040;stroke-width:1;"/><line style="stroke:#404040;stroke-width:1;" x1="575.6812" x2="697.0425" y1="790.2153" y2="790.2153"/><text fill="#000000" font-family="'Times New Roman'" font-size="11" lengthAdjust="spacing" textLength="87.6831" x="595.5203" y="773.187">UPDATE node_run</text><text fill="#000000" font-family="'Times New Roman'" font-size="11" lengthAdjust="spacing" textLength="88.6714" x="595.0261" y="785.8359">status = failed, error</text></g><g class="message" data-entity-1="part4" data-entity-2="part8" data-source-line="60" id="msg19"><polygon fill="#404040" points="962.4941,812.8643,972.4941,816.8643,962.4941,820.8643,966.4941,816.8643" style="stroke:#404040;stroke-width:1;"/><line style="stroke:#404040;stroke-width:1;" x1="575.6812" x2="968.4941" y1="816.8643" y2="816.8643"/><text fill="#000000" font-family="'Times New Roman'" font-size="11" lengthAdjust="spacing" textLength="86.1255" x="732.0249" y="812.4849">node_exited(failed)</text></g><path d="M580,832.8643 L580,873.8643 A3,3 0 0 0 583,876.8643 L686,876.8643 A3,3 0 0 0 689,873.8643 L689,839.8643 L679,829.8643 L583,829.8643 A3,3 0 0 0 580,832.8643" fill="#FEFFDD" style="stroke:#181818;stroke-width:0.5;"/><path d="M679,829.8643 L679,838.3643 A1.5,1.5 0 0 0 680.5,839.8643 L689,839.8643 L679,829.8643" fill="#FEFFDD" style="stroke:#181818;stroke-width:0.5;"/><text fill="#000000" font-family="'Times New Roman'" font-size="11" lengthAdjust="spacing" textLength="88.4512" x="586" y="845.1338">&#1087;&#1086;&#1090;&#1086;&#1084;&#1082;&#1080; &#1087;&#1086;&#1083;&#1091;&#1095;&#1072;&#1102;&#1090;</text><text fill="#000000" font-family="'Times New Roman'" font-size="11" lengthAdjust="spacing" textLength="70.979" x="586" y="857.7827">status = skipped</text><text fill="#000000" font-family="'Times New Roman'" font-size="11" lengthAdjust="spacing" textLength="65.9087" x="586" y="870.4316">(&#1090;&#1088;&#1072;&#1085;&#1079;&#1080;&#1090;&#1080;&#1074;&#1085;&#1086;)</text><g class="message" data-entity-1="part8" data-entity-2="part9" data-source-line="64" id="msg20"><polygon fill="#404040" points="1151.3545,904.46,1161.3545,908.46,1151.3545,912.46,1155.3545,908.46" style="stroke:#404040;stroke-width:1;"/><line style="stroke:#404040;stroke-width:1;stroke-dasharray:2,2;" x1="974.4941" x2="1157.3545" y1="908.46" y2="908.46"/><text fill="#000000" font-family="'Times New Roman'" font-size="11" lengthAdjust="spacing" textLength="53.7593" x="1042.0447" y="904.0806">node_exited</text></g><g class="message" data-entity-1="part3" data-entity-2="part5" data-source-line="67" id="msg21"><polygon fill="#404040" points="691.0425,950.7578,701.0425,954.7578,691.0425,958.7578,695.0425,954.7578" style="stroke:#404040;stroke-width:1;"/><line style="stroke:#404040;stroke-width:1;" x1="367.9956" x2="697.0425" y1="954.7578" y2="954.7578"/><text fill="#000000" font-family="'Times New Roman'" font-size="11" lengthAdjust="spacing" textLength="109.0708" x="480.9836" y="937.7295">UPDATE workflow_run</text><text fill="#000000" font-family="'Times New Roman'" font-size="11" lengthAdjust="spacing" textLength="96.9912" x="487.0234" y="950.3784">status = success|failed</text></g><g class="message" data-entity-1="part3" data-entity-2="part8" data-source-line="68" id="msg22"><polygon fill="#404040" points="962.4941,977.4067,972.4941,981.4067,962.4941,985.4067,966.4941,981.4067" style="stroke:#404040;stroke-width:1;"/><line style="stroke:#404040;stroke-width:1;" x1="367.9956" x2="968.4941" y1="981.4067" y2="981.4067"/><text fill="#000000" font-family="'Times New Roman'" font-size="11" lengthAdjust="spacing" textLength="83.7085" x="629.3906" y="977.0273">workflow_finished</text></g><g class="message" data-entity-1="part8" data-entity-2="part9" data-source-line="69" id="msg23"><polygon fill="#404040" points="1151.3545,1004.0557,1161.3545,1008.0557,1151.3545,1012.0557,1155.3545,1008.0557" style="stroke:#404040;stroke-width:1;"/><line style="stroke:#404040;stroke-width:1;stroke-dasharray:2,2;" x1="974.4941" x2="1157.3545" y1="1008.0557" y2="1008.0557"/><text fill="#000000" font-family="'Times New Roman'" font-size="11" lengthAdjust="spacing" textLength="83.7085" x="1027.0701" y="1003.6763">workflow_finished</text></g><line style="stroke:#000000;stroke-width:1;stroke-dasharray:2,2;" x1="274.6013" x2="1233.7974" y1="1017.0557" y2="1017.0557"/><text fill="#000000" font-family="'Times New Roman'" font-size="11" font-weight="700" lengthAdjust="spacing" textLength="88.9131" x="279.6013" y="1027.3252">[&#1086;&#1073;&#1085;&#1072;&#1088;&#1091;&#1078;&#1077;&#1085; &#1094;&#1080;&#1082;&#1083;]</text><g class="message" data-entity-1="part3" data-entity-2="part5" data-source-line="71" id="msg24"><polygon fill="#404040" points="691.0425,1070.6514,701.0425,1074.6514,691.0425,1078.6514,695.0425,1074.6514" style="stroke:#404040;stroke-width:1;"/><line style="stroke:#404040;stroke-width:1;" x1="367.9956" x2="697.0425" y1="1074.6514" y2="1074.6514"/><text fill="#000000" font-family="'Times New Roman'" font-size="11" lengthAdjust="spacing" textLength="109.0708" x="480.9836" y="1044.9741">UPDATE workflow_run</text><text fill="#000000" font-family="'Times New Roman'" font-size="11" lengthAdjust="spacing" textLength="64.5498" x="503.2441" y="1057.623">status = failed,</text><text fill="#000000" font-family="'Times New Roman'" font-size="11" lengthAdjust="spacing" textLength="107.105" x="481.9666" y="1070.272">error = "Cycle detected"</text></g><?plantuml-src dLNHRYCr57sVhx32IoArbBAq2vL0IfCKkagJaWdgIwMLEtCpiJAr1zlJR7TPgRG8tbWUa93saIy8b8MgTCC3Fp3p2tm9rvwPP9AsguL4IIRNvzhNvvnhgn7Z4PNqc1nHRnH84NE_8K8XoJixzkMe6I8Vb1masIp5rP3wOinuG0OqL50QyM50ur3l2Auxz1X8fS-EGP4EZ4bF75DUkHlhigT0rjVBIy2NCN0FwbAASN_8l147fSXTa3qSe07KGnPmuW7N89qxOEIPG_2rJwLc7eierzj2-Y3ppR_VscXyMBy5MUQesMXzjBEn33Dxo07hTVEsW3ORG9jnM5Xdi_5mus7JZjkzvU4FtZFlBEnf8U-hBHkyfwhdZgEP3e4aFoH_9fV9D3rBhjBpv8RWpzV9NyaKmw-JL_YvIb-GiP2ZGIZ6gyab0YVfDyd4SQXPW5IIdqqkpd6Pl4hF3daLnOjfIDQ89mN7dp4S3OKOrIg4AjANB0YGzcXE2QdqOjxYo7qCBiWJve65vg55w45UIUi9UB5cWYzaOF1DS24FUNyeWVhxGeIakhwP5MN-EJxLz8WgTEA-K3gGu7xUjgFDxTBO7kExNHjs7omkrH4-5Clq861AorCBn3-Bo4ybZORRKb3Veqgt4GdODnPxuCveVOaAN1a5qdCarKho6tuRUQwJ2K5b9WGLcvfOSfrjf14oTBNZv2oJrKyA5iaMWUm9oQuMUkxwAmJT7-kQK-0mfRcDwDsEs-hrPye_bZ77CfIcEbRaOn81zx6jItcOM2oxHH2zwplbIGqrE32Nsc-Tc5fnk-o4QiZ4iwYY1BVLRZNw931qFLOZ244BB6AdrzqhrGKdJA4Fd5bklf8M4Le-O1uDkwP3gemt0MM55I9Y7GXJ_I7_v-n7aaoMU-0bXbvRZuUQ59v7NFgjuTe8atvdfB6Djb1pJXj7CnZAoDy_aKwPjsphjTk9N-mtw_tM4jzkgqzcgHZXMFH2we6BgRCSX4eDlaNWY94aSuGXiz_TsoTho0hpreeCjVQC-S_NBCEEJGk5Y8WnM-4jSn1CaHsxO-kzQNAJNbXCUfQ-G5DUfnSsjroORR0jGiEmEwZw4AdQkte8l1v5uMbTdNAl2eWqFLERvSwiOFknYDgPS4Rt0SuNW7wa1E-ZZ5LFy04BFgDgE9y2GQlprOqA98EHwYEtswdTcXMRqxI6xLkesbvOoLFcO0CgJMkgHX_tGE6bvCpBHw-esFFmafd5oakLPIxySSXdykQfrfrOnPrJMBbjBZnXg7GrJvgN2dZBubtBmbZ2_wd2f0AU2e0tZdox6hAKsWAO2vGHJuEX9c9WKxSonnXJtQ29haZchVG2VJL9lpU7t9oA4OiYyB5lqdFJUzYBVzZMl4f-nUTfQRlSdptxSBU1bZkXLBjJpF6M_RWirbVPtj_GaWF6cHhUqvEtKLO-vEKNS_nWUrqalvjpXXG7pt-jCvVpa5izCL1fd7fuxVkWmKC2AexPVOavUmh_2m00?></g></svg>